<svg xmlns="http://www.w3.org/2000/svg" width="940" height="280" shape-rendering="geometricPrecision" image-rendering="optimizeQuality" fill-rule="evenodd" xmlns:v="https://vecta.io/nano"><path d="M0 0h940v280H0z" fill="#f1f9fd"/><g fill="#a7c4d2" fill-rule="nonzero"><path d="M384.8 153.89c-1.4.9-2.93 1.6-4.61 2.12-1.67.51-3.44.76-5.3.76-2.52 0-4.84-.44-6.98-1.32-2.14-.89-3.99-2.09-5.54-3.61s-2.77-3.3-3.65-5.35c-.89-2.05-1.33-4.23-1.33-6.56v-.09c0-2.33.44-4.52 1.33-6.59.88-2.06 2.12-3.86 3.7-5.4 1.58-1.53 3.44-2.74 5.58-3.63 2.14-.88 4.47-1.32 6.98-1.32s4.84.44 6.98 1.32c2.14.89 3.99 2.09 5.54 3.61s2.77 3.31 3.65 5.35c.88 2.05 1.33 4.24 1.33 6.56v.1c0 1.73-.25 3.39-.75 4.98a16 16 0 0 1-2.14 4.37l3.35 2.84-4.56 5.07-3.58-3.21zm-9.84-5.12a9.3 9.3 0 0 0 3.32-.6l-4.51-3.87 4.56-5.12 4.42 4.01c.34-.97.51-2.02.51-3.17v-.09a9.53 9.53 0 0 0-.6-3.37 9 9 0 0 0-1.72-2.84 8.33 8.33 0 0 0-2.68-1.96c-1.04-.48-2.18-.72-3.42-.72s-2.36.24-3.37.72-1.88 1.13-2.61 1.93c-.73.81-1.29 1.74-1.67 2.8a9.56 9.56 0 0 0-.59 3.35v.09a9.54 9.54 0 0 0 .61 3.37c.41 1.07.98 2.01 1.71 2.82.73.8 1.61 1.45 2.64 1.93 1.02.48 2.16.72 3.4.72z"/><path d="M335.7 123.55h12.57c2.91 0 5.51.4 7.79 1.19s4.2 1.9 5.77 3.32c1.57 1.43 2.76 3.13 3.58 5.1.83 1.97 1.24 4.13 1.24 6.49v.09c0 2.36-.42 4.54-1.26 6.54a14.77 14.77 0 0 1-3.63 5.19c-1.58 1.46-3.53 2.6-5.84 3.42s-4.92 1.23-7.84 1.23H335.7v-32.57zm12.72 24.57c2.71 0 4.89-.71 6.54-2.14s2.47-3.46 2.47-6.1v-.09c0-2.61-.82-4.63-2.47-6.07s-3.83-2.17-6.54-2.17h-3.69v16.57h3.69zm75.63 4.96c2.08 0 3.97-.33 5.66-.99 1.71-.66 3.15-1.57 4.33-2.74 1.18-1.16 2.09-2.54 2.74-4.13.64-1.59.97-3.3.97-5.13V140c0-1.83-.33-3.54-.97-5.13a12.46 12.46 0 0 0-2.74-4.15c-1.18-1.18-2.62-2.11-4.33-2.79-1.69-.68-3.58-1.01-5.66-1.01h-7.75v26.16h7.75zm-11.48-29.61h11.48c2.58 0 4.95.41 7.11 1.25 2.15.83 4.01 1.99 5.57 3.47s2.76 3.22 3.61 5.22 1.28 4.16 1.28 6.5v.09c0 2.33-.43 4.5-1.28 6.52a15.41 15.41 0 0 1-3.61 5.24c-1.56 1.48-3.42 2.65-5.57 3.5-2.16.85-4.53 1.27-7.11 1.27h-11.48v-33.06zm37.27 0h3.73v33.06h-3.73v-33.06zm28.76 33.63c-2.61 0-4.95-.44-7.01-1.32-2.06-.89-3.83-2.1-5.29-3.64s-2.58-3.35-3.35-5.41c-.78-2.06-1.16-4.27-1.16-6.64V140c0-2.27.4-4.43 1.2-6.5.81-2.06 1.93-3.88 3.38-5.45 1.45-1.58 3.19-2.83 5.22-3.76s4.29-1.39 6.78-1.39c1.38 0 2.65.09 3.8.28a17.13 17.13 0 0 1 3.21.85c.99.38 1.92.85 2.79 1.4.86.55 1.71 1.17 2.53 1.86l-2.41 2.84a16.28 16.28 0 0 0-1.99-1.54 13.6 13.6 0 0 0-2.24-1.18c-.8-.33-1.69-.59-2.65-.78s-2.02-.28-3.18-.28c-1.83 0-3.52.36-5.06 1.09-1.54.72-2.86 1.69-3.97 2.92-1.1 1.23-1.96 2.67-2.59 4.32-.63 1.66-.95 3.4-.95 5.23v.09c0 1.98.31 3.81.92 5.48.62 1.67 1.49 3.12 2.62 4.34 1.14 1.23 2.51 2.19 4.11 2.89 1.61.69 3.42 1.03 5.43 1.03 1.89 0 3.67-.32 5.34-.96 1.67-.65 3.07-1.43 4.21-2.34v-8.22h-10.06v-3.35h13.65v13.17c-1.55 1.39-3.44 2.58-5.7 3.57-2.25.99-4.77 1.49-7.58 1.49zm22.02-33.63h3.73v33.06h-3.73v-33.06zm22.15 3.45h-11.1v-3.45h25.93v3.45h-11.1v29.61h-3.73v-29.61zm43.31 17.52l-7.51-16.86-7.55 16.86h15.06zm-9.21-21.21h3.5l15.07 33.3h-4.02l-3.87-8.74h-18l-3.92 8.74h-3.83l15.07-33.3zm25.08.24h3.74v29.61h18.61v3.45h-22.35v-33.06z"/></g></svg>