<?xml version="1.0" encoding="UTF-8"?>
<!DOCTYPE svg PUBLIC "-//W3C//DTD SVG 1.1//EN" "http://www.w3.org/Graphics/SVG/1.1/DTD/svg11.dtd">
<!-- Creator: CorelDRAW -->
<svg xmlns="http://www.w3.org/2000/svg" xml:space="preserve" width="940px" height="280px" version="1.1" style="shape-rendering:geometricPrecision; text-rendering:geometricPrecision; image-rendering:optimizeQuality; fill-rule:evenodd; clip-rule:evenodd"
viewBox="0 0 940 280"
 xmlns:xlink="http://www.w3.org/1999/xlink"
 xmlns:xodm="http://www.corel.com/coreldraw/odm/2003">
 <defs>
  <style type="text/css">
   <![CDATA[
    .fil0 {fill:#F1F9FD}
    .fil1 {fill:#A7C4D2;fill-rule:nonzero}
   ]]>
  </style>
 </defs>
 <g id="Fundo">
  <metadata id="CorelCorpID_0Corel-Layer"/>
  <polygon class="fil0" points="0,0 940,0 940,280 0,280 "/>
 </g>
 <g id="Arte">
  <metadata id="CorelCorpID_1Corel-Layer"/>
  <g id="_2399759600480">
   <path class="fil1" d="M384.8 153.89c-1.4,0.9 -2.93,1.6 -4.61,2.12 -1.67,0.51 -3.44,0.76 -5.3,0.76 -2.52,0 -4.84,-0.44 -6.98,-1.32 -2.14,-0.89 -3.99,-2.09 -5.54,-3.61 -1.55,-1.52 -2.77,-3.3 -3.65,-5.35 -0.89,-2.05 -1.33,-4.23 -1.33,-6.56l0 -0.09c0,-2.33 0.44,-4.52 1.33,-6.59 0.88,-2.06 2.12,-3.86 3.7,-5.4 1.58,-1.53 3.44,-2.74 5.58,-3.63 2.14,-0.88 4.47,-1.32 6.98,-1.32 2.51,0 4.84,0.44 6.98,1.32 2.14,0.89 3.99,2.09 5.54,3.61 1.55,1.52 2.77,3.31 3.65,5.35 0.88,2.05 1.33,4.24 1.33,6.56l0 0.1c0,1.73 -0.25,3.39 -0.75,4.98 -0.5,1.58 -1.21,3.04 -2.14,4.37l3.35 2.84 -4.56 5.07 -3.58 -3.21zm-9.84 -5.12c1.16,0 2.26,-0.2 3.32,-0.6l-4.51 -3.87 4.56 -5.12 4.42 4.01c0.34,-0.97 0.51,-2.02 0.51,-3.17l0 -0.09c0,-1.18 -0.2,-2.3 -0.6,-3.37 -0.41,-1.07 -0.98,-2.02 -1.72,-2.84 -0.75,-0.82 -1.64,-1.48 -2.68,-1.96 -1.04,-0.48 -2.18,-0.72 -3.42,-0.72 -1.24,0 -2.36,0.24 -3.37,0.72 -1.01,0.48 -1.88,1.13 -2.61,1.93 -0.73,0.81 -1.29,1.74 -1.67,2.8 -0.39,1.05 -0.59,2.17 -0.59,3.35l0 0.09c0,1.18 0.21,2.3 0.61,3.37 0.41,1.07 0.98,2.01 1.71,2.82 0.73,0.8 1.61,1.45 2.64,1.93 1.02,0.48 2.16,0.72 3.4,0.72z"/>
   <path class="fil1" d="M335.7 123.55l12.57 0c2.91,0 5.51,0.4 7.79,1.19 2.28,0.79 4.2,1.9 5.77,3.32 1.57,1.43 2.76,3.13 3.58,5.1 0.83,1.97 1.24,4.13 1.24,6.49l0 0.09c0,2.36 -0.42,4.54 -1.26,6.54 -0.84,2 -2.05,3.73 -3.63,5.19 -1.58,1.46 -3.53,2.6 -5.84,3.42 -2.31,0.82 -4.92,1.23 -7.84,1.23l-12.38 0 0 -32.57zm12.72 24.57c2.71,0 4.89,-0.71 6.54,-2.14 1.65,-1.43 2.47,-3.46 2.47,-6.1l0 -0.09c0,-2.61 -0.82,-4.63 -2.47,-6.07 -1.65,-1.44 -3.83,-2.17 -6.54,-2.17l-3.69 0 0 16.57 3.69 0z"/>
   <path class="fil1" d="M424.05 153.08c2.08,0 3.97,-0.33 5.66,-0.99 1.71,-0.66 3.15,-1.57 4.33,-2.74 1.18,-1.16 2.09,-2.54 2.74,-4.13 0.64,-1.59 0.97,-3.3 0.97,-5.13l0 -0.09c0,-1.83 -0.33,-3.54 -0.97,-5.13 -0.65,-1.59 -1.56,-2.97 -2.74,-4.15 -1.18,-1.18 -2.62,-2.11 -4.33,-2.79 -1.69,-0.68 -3.58,-1.01 -5.66,-1.01l-7.75 0 0 26.16 7.75 0zm-11.48 -29.61l11.48 0c2.58,0 4.95,0.41 7.11,1.25 2.15,0.83 4.01,1.99 5.57,3.47 1.56,1.48 2.76,3.22 3.61,5.22 0.85,2 1.28,4.16 1.28,6.5l0 0.09c0,2.33 -0.43,4.5 -1.28,6.52 -0.85,2.01 -2.05,3.76 -3.61,5.24 -1.56,1.48 -3.42,2.65 -5.57,3.5 -2.16,0.85 -4.53,1.27 -7.11,1.27l-11.48 0 0 -33.06zm37.27 0l3.73 0 0 33.06 -3.73 0 0 -33.06zm28.76 33.63c-2.61,0 -4.95,-0.44 -7.01,-1.32 -2.06,-0.89 -3.83,-2.1 -5.29,-3.64 -1.46,-1.54 -2.58,-3.35 -3.35,-5.41 -0.78,-2.06 -1.16,-4.27 -1.16,-6.64l0 -0.09c0,-2.27 0.4,-4.43 1.2,-6.5 0.81,-2.06 1.93,-3.88 3.38,-5.45 1.45,-1.58 3.19,-2.83 5.22,-3.76 2.03,-0.93 4.29,-1.39 6.78,-1.39 1.38,0 2.65,0.09 3.8,0.28 1.15,0.19 2.22,0.48 3.21,0.85 0.99,0.38 1.92,0.85 2.79,1.4 0.86,0.55 1.71,1.17 2.53,1.86l-2.41 2.84c-0.63,-0.57 -1.29,-1.08 -1.99,-1.54 -0.69,-0.45 -1.44,-0.85 -2.24,-1.18 -0.8,-0.33 -1.69,-0.59 -2.65,-0.78 -0.96,-0.19 -2.02,-0.28 -3.18,-0.28 -1.83,0 -3.52,0.36 -5.06,1.09 -1.54,0.72 -2.86,1.69 -3.97,2.92 -1.1,1.23 -1.96,2.67 -2.59,4.32 -0.63,1.66 -0.95,3.4 -0.95,5.23l0 0.09c0,1.98 0.31,3.81 0.92,5.48 0.62,1.67 1.49,3.12 2.62,4.34 1.14,1.23 2.51,2.19 4.11,2.89 1.61,0.69 3.42,1.03 5.43,1.03 1.89,0 3.67,-0.32 5.34,-0.96 1.67,-0.65 3.07,-1.43 4.21,-2.34l0 -8.22 -10.06 0 0 -3.35 13.65 0 0 13.17c-1.55,1.39 -3.44,2.58 -5.7,3.57 -2.25,0.99 -4.77,1.49 -7.58,1.49zm22.02 -33.63l3.73 0 0 33.06 -3.73 0 0 -33.06zm22.15 3.45l-11.1 0 0 -3.45 25.93 0 0 3.45 -11.1 0 0 29.61 -3.73 0 0 -29.61zm43.31 17.52l-7.51 -16.86 -7.55 16.86 15.06 0zm-9.21 -21.21l3.5 0 15.07 33.3 -4.02 0 -3.87 -8.74 -18 0 -3.92 8.74 -3.83 0 15.07 -33.3zm25.08 0.24l3.74 0 0 29.61 18.61 0 0 3.45 -22.35 0 0 -33.06z"/>
  </g>
 </g>
</svg>
