<svg xmlns="http://www.w3.org/2000/svg" width="200" height="40" shape-rendering="geometricPrecision" image-rendering="optimizeQuality" fill-rule="evenodd" xmlns:v="https://vecta.io/nano"><rect x="19.14" y="3.19" width="161.71" height="33.62" rx="8" fill="#e6e6e6"/><path d="M41.42 11.68h13.27v3.89h-8.76v2.51h7.94v3.61h-7.94v2.62h8.88v3.9H41.42zm20.22 8.12l-5.43-8.12h5.26l2.93 4.65 2.95-4.65h5.15l-5.43 8.07 5.67 8.46h-5.27l-3.16-4.99-3.19 4.99h-5.15zm16.86-4.11h-4.96v-4.01h14.5v4.01h-4.96v12.52H78.5zm11.55-4.01h13.27v3.89h-8.76v2.51h7.93v3.61h-7.93v2.62h8.88v3.9H90.05zm23.35 7.93c.79 0 1.39-.18 1.82-.53.43-.36.64-.83.64-1.43v-.05c0-.66-.22-1.15-.66-1.47-.44-.33-1.05-.49-1.82-.49h-3v3.97h3.02zm-7.6-7.93h7.81c1.28 0 2.36.15 3.24.47.88.31 1.6.75 2.15 1.32.97.95 1.46 2.23 1.46 3.85v.05c0 1.27-.3 2.33-.92 3.16-.61.84-1.44 1.47-2.48 1.91l3.95 5.77h-5.29l-3.33-5.01h-.05-1.96v5.01h-4.58V11.68zm16.98 0h4.28l6.82 8.73v-8.73h4.51v16.53h-4.03l-7.07-9.07v9.07h-4.51zm26.88 12.72c.63 0 1.21-.11 1.73-.35s.97-.56 1.33-.96.65-.87.85-1.4a4.62 4.62 0 0 0 .31-1.7v-.05a4.62 4.62 0 0 0-.31-1.7 4.24 4.24 0 0 0-.88-1.42c-.37-.41-.82-.73-1.35-.98-.52-.24-1.09-.36-1.72-.36s-1.21.12-1.72.35c-.52.24-.96.56-1.33.96s-.65.87-.85 1.4a4.87 4.87 0 0 0-.3 1.7v.05c0 .6.11 1.17.31 1.7a4.56 4.56 0 0 0 .87 1.42 4.15 4.15 0 0 0 1.34.98c.51.24 1.09.36 1.72.36zm-.03 4.14c-1.28 0-2.46-.23-3.55-.68-1.08-.45-2.02-1.05-2.81-1.83-.78-.77-1.4-1.67-1.85-2.71s-.67-2.15-.67-3.33v-.05c0-1.18.22-2.29.67-3.34a8.42 8.42 0 0 1 1.88-2.74c.8-.78 1.75-1.39 2.83-1.84 1.09-.45 2.27-.68 3.55-.68 1.27 0 2.45.23 3.54.68 1.08.45 2.02 1.06 2.81 1.83.78.77 1.4 1.67 1.85 2.71s.67 2.15.67 3.33v.05c0 1.18-.22 2.3-.67 3.34a8.27 8.27 0 0 1-1.88 2.74c-.8.78-1.74 1.39-2.83 1.84s-2.27.68-3.54.68z" fill="#ccc" fill-rule="nonzero"/></svg>