<?xml version="1.0" encoding="UTF-8"?>
<!DOCTYPE svg PUBLIC "-//W3C//DTD SVG 1.1//EN" "http://www.w3.org/Graphics/SVG/1.1/DTD/svg11.dtd">
<svg xmlns="http://www.w3.org/2000/svg" xml:space="preserve" width="200px" height="40px" version="1.1" style="shape-rendering:geometricPrecision; text-rendering:geometricPrecision; image-rendering:optimizeQuality; fill-rule:evenodd; clip-rule:evenodd"
viewBox="0 0 200 40"
 xmlns:xlink="http://www.w3.org/1999/xlink">
 <defs>
  <style type="text/css">
   <![CDATA[
    .fil0 {fill:#E6E6E6}
    .fil1 {fill:#CCCCCC;fill-rule:nonzero}
   ]]>
  </style>
 </defs>
 <g id="Arte">
  <rect class="fil0" x="19.14" y="3.19" width="161.71" height="33.62" rx="8" ry="8"/>
  <polygon class="fil1" points="41.42,11.68 54.69,11.68 54.69,15.57 45.93,15.57 45.93,18.08 53.87,18.08 53.87,21.69 45.93,21.69 45.93,24.31 54.81,24.31 54.81,28.21 41.42,28.21 "/>
  <polygon id="1" class="fil1" points="61.64,19.8 56.21,11.68 61.47,11.68 64.4,16.33 67.35,11.68 72.5,11.68 67.07,19.75 72.74,28.21 67.47,28.21 64.31,23.22 61.12,28.21 55.97,28.21 "/>
  <polygon id="2" class="fil1" points="78.5,15.69 73.54,15.69 73.54,11.68 88.04,11.68 88.04,15.69 83.08,15.69 83.08,28.21 78.5,28.21 "/>
  <polygon id="3" class="fil1" points="90.05,11.68 103.32,11.68 103.32,15.57 94.56,15.57 94.56,18.08 102.49,18.08 102.49,21.69 94.56,21.69 94.56,24.31 103.44,24.31 103.44,28.21 90.05,28.21 "/>
  <path id="4" class="fil1" d="M113.4 19.61c0.79,0 1.39,-0.18 1.82,-0.53 0.43,-0.36 0.64,-0.83 0.64,-1.43l0 -0.05c0,-0.66 -0.22,-1.15 -0.66,-1.47 -0.44,-0.33 -1.05,-0.49 -1.82,-0.49l-3 0 0 3.97 3.02 0zm-7.6 -7.93l7.81 0c1.28,0 2.36,0.15 3.24,0.47 0.88,0.31 1.6,0.75 2.15,1.32 0.97,0.95 1.46,2.23 1.46,3.85l0 0.05c0,1.27 -0.3,2.33 -0.92,3.16 -0.61,0.84 -1.44,1.47 -2.48,1.91l3.95 5.77 -5.29 0 -3.33 -5.01 -0.05 0 -1.96 0 0 5.01 -4.58 0 0 -16.53z"/>
  <polygon id="5" class="fil1" points="122.78,11.68 127.06,11.68 133.88,20.41 133.88,11.68 138.39,11.68 138.39,28.21 134.36,28.21 127.29,19.14 127.29,28.21 122.78,28.21 "/>
  <path id="6" class="fil1" d="M149.66 24.4c0.63,0 1.21,-0.11 1.73,-0.35 0.52,-0.24 0.97,-0.56 1.33,-0.96 0.36,-0.4 0.65,-0.87 0.85,-1.4 0.21,-0.54 0.31,-1.1 0.31,-1.7l0 -0.05c0,-0.6 -0.1,-1.16 -0.31,-1.7 -0.2,-0.54 -0.5,-1.01 -0.88,-1.42 -0.37,-0.41 -0.82,-0.73 -1.35,-0.98 -0.52,-0.24 -1.09,-0.36 -1.72,-0.36 -0.63,0 -1.21,0.12 -1.72,0.35 -0.52,0.24 -0.96,0.56 -1.33,0.96 -0.37,0.4 -0.65,0.87 -0.85,1.4 -0.2,0.54 -0.3,1.11 -0.3,1.7l0 0.05c0,0.6 0.11,1.17 0.31,1.7 0.21,0.54 0.5,1.01 0.87,1.42 0.37,0.41 0.81,0.73 1.34,0.98 0.51,0.24 1.09,0.36 1.72,0.36zm-0.03 4.14c-1.28,0 -2.46,-0.23 -3.55,-0.68 -1.08,-0.45 -2.02,-1.05 -2.81,-1.83 -0.78,-0.77 -1.4,-1.67 -1.85,-2.71 -0.45,-1.04 -0.67,-2.15 -0.67,-3.33l0 -0.05c0,-1.18 0.22,-2.29 0.67,-3.34 0.45,-1.05 1.08,-1.96 1.88,-2.74 0.8,-0.78 1.75,-1.39 2.83,-1.84 1.09,-0.45 2.27,-0.68 3.55,-0.68 1.27,0 2.45,0.23 3.54,0.68 1.08,0.45 2.02,1.06 2.81,1.83 0.78,0.77 1.4,1.67 1.85,2.71 0.45,1.04 0.67,2.15 0.67,3.33l0 0.05c0,1.18 -0.22,2.3 -0.67,3.34 -0.45,1.05 -1.07,1.96 -1.88,2.74 -0.8,0.78 -1.74,1.39 -2.83,1.84 -1.09,0.45 -2.27,0.68 -3.54,0.68z"/>
 </g>
</svg>
