<?xml version="1.0" encoding="UTF-8"?>
<!DOCTYPE svg PUBLIC "-//W3C//DTD SVG 1.1//EN" "http://www.w3.org/Graphics/SVG/1.1/DTD/svg11.dtd">
<!-- Creator: CorelDRAW 2018 (64 Bit) -->
<svg xmlns="http://www.w3.org/2000/svg" xml:space="preserve" width="200px" height="200px" version="1.1" style="shape-rendering:geometricPrecision; text-rendering:geometricPrecision; image-rendering:optimizeQuality; fill-rule:evenodd; clip-rule:evenodd"
viewBox="0 0 200 200"
 xmlns:xlink="http://www.w3.org/1999/xlink">
 <defs>
  <style type="text/css">
   <![CDATA[
    .fil0 {fill:#274C77}
    .fil1 {fill:#A7C4D2;fill-rule:nonzero}
    .fil2 {fill:white;fill-rule:nonzero}
   ]]>
  </style>
 </defs>
 <g id="Arte">
  <metadata id="CorelCorpID_0Corel-Layer"/>
  <path class="fil0" d="M18 0l164 0c9.9,0 18,8.1 18,18l0 164c0,9.9 -8.1,18 -18,18l-164 0c-9.9,0 -18,-8.1 -18,-18l0 -164c0,-9.9 8.1,-18 18,-18z"/>
  <g id="_1312986573936">
   <path class="fil1" d="M110.23 64.73l27.2 0c6.32,0 11.94,0.86 16.88,2.57 4.94,1.71 9.1,4.12 12.5,7.21 3.39,3.09 5.97,6.77 7.76,11.03 1.78,4.27 2.67,8.95 2.67,14.06l0 0.2c0,5.1 -0.91,9.82 -2.72,14.16 -1.82,4.33 -4.44,8.07 -7.86,11.23 -3.43,3.16 -7.65,5.63 -12.65,7.41 -5,1.78 -10.66,2.67 -16.98,2.67l-26.8 0 0 -70.54zm27.54 53.21c5.86,0 10.58,-1.55 14.16,-4.64 3.58,-3.09 5.36,-7.49 5.36,-13.2l0 -0.2c0,-5.64 -1.78,-10.03 -5.36,-13.15 -3.58,-3.12 -8.3,-4.69 -14.16,-4.69l-7.99 0 0 35.88 7.99 0z"/>
   <polygon class="fil2" points="22.76,64.73 43.42,64.73 60.25,92.04 77.08,64.73 97.73,64.73 97.73,135.27 78.29,135.27 78.29,94.76 60.3,122.37 59.9,122.37 42.01,94.96 42.01,135.27 22.76,135.27 "/>
  </g>
 </g>
</svg>
