<svg xmlns="http://www.w3.org/2000/svg" width="200" height="200" shape-rendering="geometricPrecision" image-rendering="optimizeQuality" fill-rule="evenodd" xmlns:v="https://vecta.io/nano"><path d="M18 0h164c9.9 0 18 8.1 18 18v164c0 9.9-8.1 18-18 18H18c-9.9 0-18-8.1-18-18V18C0 8.1 8.1 0 18 0z" fill="#274c77"/><g fill-rule="nonzero"><path d="M144.79 115.38c-3.05 1.97-6.41 3.52-10.07 4.64-3.67 1.11-7.54 1.67-11.61 1.67-5.49 0-10.58-.96-15.27-2.9-4.68-1.93-8.72-4.56-12.11-7.88-3.39-3.33-6.06-7.23-7.99-11.71s-2.9-9.26-2.9-14.35v-.21c0-5.09.97-9.89 2.9-14.4s4.63-8.45 8.09-11.81 7.53-6 12.22-7.94c4.68-1.93 9.77-2.9 15.27-2.9 5.49 0 10.58.97 15.26 2.9 4.69 1.94 8.72 4.57 12.12 7.89 3.39 3.33 6.05 7.23 7.99 11.71 1.93 4.48 2.9 9.26 2.9 14.35v.2c0 3.8-.54 7.43-1.63 10.9-1.09 3.46-2.65 6.65-4.68 9.56l7.33 6.21-9.98 11.1-7.84-7.03zm-21.51-11.19c2.53 0 4.94-.44 7.26-1.33l-9.87-8.44 9.97-11.2 9.67 8.75c.75-2.1 1.12-4.41 1.12-6.92v-.2c0-2.58-.44-5.04-1.32-7.38s-2.14-4.41-3.76-6.21c-1.63-1.8-3.59-3.22-5.86-4.28-2.27-1.05-4.77-1.57-7.48-1.57s-5.17.52-7.38 1.57c-2.2 1.06-4.11 2.46-5.7 4.23-1.59 1.76-2.82 3.8-3.66 6.11-.85 2.3-1.28 4.74-1.28 7.32v.21c0 2.58.44 5.04 1.33 7.38.9 2.34 2.13 4.39 3.73 6.16 1.61 1.76 3.53 3.17 5.78 4.22 2.24 1.05 4.74 1.58 7.45 1.58z" fill="#a7c4d2"/><path d="M37.39 49.02h27.49c6.38 0 12.06.86 17.05 2.59 4.98 1.73 9.19 4.16 12.62 7.28s6.04 6.84 7.84 11.15c1.79 4.31 2.69 9.04 2.69 14.2v.2c0 5.16-.91 9.92-2.74 14.3a32.2 32.2 0 0 1-7.94 11.35c-3.47 3.19-7.72 5.68-12.78 7.48-5.05 1.8-10.77 2.7-17.15 2.7H37.39V49.02zm27.83 53.74c5.92 0 10.69-1.56 14.3-4.68s5.41-7.57 5.41-13.34v-.2c0-5.7-1.8-10.13-5.41-13.28-3.61-3.16-8.38-4.74-14.3-4.74h-8.08v36.24h8.08z" fill="#fff"/></g><path d="M200 157.91V182c0 9.9-8.1 18-18 18H18c-9.9 0-18-8.1-18-18v-24.09h200z" fill="#3c4b58"/><path d="M64.59 169.09h7.88c1.57 0 2.73.07 3.5.19.77.14 1.45.41 2.06.82s1.11.96 1.51 1.64c.41.69.61 1.46.61 2.31 0 .91-.25 1.77-.74 2.53a4.6 4.6 0 0 1-2.02 1.73c1.2.36 2.11.95 2.76 1.8.64.84.97 1.83.97 2.98a5.84 5.84 0 0 1-.63 2.62 5.35 5.35 0 0 1-1.71 2.04c-.72.5-1.61.82-2.67.94-.67.06-2.27.11-4.81.13h-6.71v-19.73zm3.99 3.28v4.55h2.61l2.89-.07c.68-.08 1.21-.32 1.6-.71.39-.38.59-.89.59-1.53 0-.61-.17-1.1-.51-1.48-.33-.38-.84-.61-1.49-.69-.4-.05-1.53-.07-3.4-.07h-2.29zm0 7.83v5.28h3.69l2.73-.12c.6-.11 1.08-.37 1.45-.78.37-.43.56-.98.56-1.68 0-.6-.14-1.1-.43-1.52-.28-.41-.7-.71-1.25-.9-.54-.19-1.72-.28-3.53-.28h-3.22zm15.9 8.62v-19.73h14.6v3.34h-10.6v4.38h9.86v3.33h-9.86v5.34h10.99v3.34H84.48zm22.81 0v-16.39h-5.84v-3.34h15.65v3.34h-5.81v16.39h-4zm28.12 0h-4.3l-1.7-4.49h-7.91l-1.64 4.49h-4.23l7.66-19.73h4.22l7.9 19.73zm-7.3-7.83l-2.74-7.3-2.66 7.3h5.4z" fill="#fff" fill-rule="nonzero"/></svg>