<?xml version="1.0" encoding="UTF-8"?>
<!DOCTYPE svg PUBLIC "-//W3C//DTD SVG 1.1//EN" "http://www.w3.org/Graphics/SVG/1.1/DTD/svg11.dtd">
<svg xmlns="http://www.w3.org/2000/svg" xml:space="preserve" width="200px" height="200px" version="1.1" style="shape-rendering:geometricPrecision; text-rendering:geometricPrecision; image-rendering:optimizeQuality; fill-rule:evenodd; clip-rule:evenodd"
viewBox="0 0 200 200"
 xmlns:xlink="http://www.w3.org/1999/xlink">
 <defs>
  <style type="text/css">
   <![CDATA[
    .fil0 {fill:#274C77}
    .fil1 {fill:#A7C4D2;fill-rule:nonzero}
    .fil2 {fill:white;fill-rule:nonzero}
   ]]>
  </style>
 </defs>
 <g id="Arte">
  <metadata id="CorelCorpID_0Corel-Layer"/>
  <path class="fil0" d="M18 0l164 0c9.9,0 18,8.1 18,18l0 164c0,9.9 -8.1,18 -18,18l-164 0c-9.9,0 -18,-8.1 -18,-18l0 -164c0,-9.9 8.1,-18 18,-18z"/>
  <g id="_1502719658048">
   <path class="fil1" d="M110.23 64.73l27.2 0c6.32,0 11.94,0.86 16.88,2.57 4.94,1.71 9.1,4.12 12.5,7.21 3.39,3.09 5.97,6.77 7.75,11.03 1.78,4.27 2.68,8.95 2.68,14.06l0 0.2c0,5.1 -0.91,9.82 -2.72,14.16 -1.82,4.33 -4.44,8.07 -7.87,11.23 -3.42,3.16 -7.64,5.63 -12.64,7.41 -5.01,1.78 -10.66,2.67 -16.98,2.67l-26.8 0 0 -70.54zm27.54 53.21c5.86,0 10.58,-1.55 14.16,-4.64 3.57,-3.09 5.35,-7.49 5.35,-13.2l0 -0.2c0,-5.64 -1.78,-10.03 -5.35,-13.15 -3.58,-3.12 -8.3,-4.69 -14.16,-4.69l-7.99 0 0 35.88 7.99 0z"/>
   <polygon class="fil2" points="22.76,64.73 43.42,64.73 60.25,92.04 77.08,64.73 97.73,64.73 97.73,135.27 78.29,135.27 78.29,94.76 60.3,122.37 59.9,122.37 42.01,94.96 42.01,135.27 22.76,135.27 "/>
  </g>
  <path class="fil2" d="M78.58 144.03l4.77 0c0.94,0 1.65,0.04 2.11,0.12 0.47,0.08 0.88,0.24 1.25,0.49 0.37,0.25 0.67,0.58 0.92,1 0.24,0.41 0.36,0.88 0.36,1.39 0,0.56 -0.15,1.07 -0.45,1.53 -0.3,0.47 -0.71,0.82 -1.22,1.05 0.73,0.22 1.28,0.58 1.67,1.09 0.39,0.51 0.59,1.11 0.59,1.8 0,0.54 -0.13,1.07 -0.38,1.59 -0.25,0.51 -0.6,0.92 -1.04,1.23 -0.43,0.3 -0.97,0.49 -1.61,0.57 -0.4,0.04 -1.37,0.07 -2.91,0.08l-4.06 0 0 -11.94zm2.41 1.99l0 2.75 1.58 0c0.94,0 1.52,-0.02 1.75,-0.04 0.41,-0.05 0.73,-0.19 0.97,-0.43 0.24,-0.24 0.35,-0.54 0.35,-0.93 0,-0.37 -0.1,-0.67 -0.3,-0.9 -0.21,-0.23 -0.51,-0.36 -0.91,-0.41 -0.24,-0.03 -0.92,-0.04 -2.05,-0.04l-1.39 0zm0 4.73l0 3.2 2.24 0c0.86,0 1.42,-0.03 1.65,-0.07 0.36,-0.07 0.65,-0.23 0.87,-0.48 0.23,-0.26 0.34,-0.59 0.34,-1.02 0,-0.36 -0.08,-0.66 -0.26,-0.91 -0.17,-0.25 -0.42,-0.43 -0.75,-0.55 -0.33,-0.11 -1.04,-0.17 -2.14,-0.17l-1.95 0zm9.62 5.22l0 -11.94 8.84 0 0 2.02 -6.42 0 0 2.65 5.97 0 0 2.02 -5.97 0 0 3.23 6.65 0 0 2.02 -9.07 0zm13.8 0l0 -9.92 -3.53 0 0 -2.02 9.47 0 0 2.02 -3.52 0 0 9.92 -2.42 0zm17.01 0l-2.6 0 -1.03 -2.72 -4.78 0 -1 2.72 -2.55 0 4.63 -11.94 2.56 0 4.77 11.94zm-4.41 -4.74l-1.66 -4.41 -1.61 4.41 3.27 0z"/>
 </g>
</svg>
