<?xml version="1.0" encoding="UTF-8"?>
<!DOCTYPE svg PUBLIC "-//W3C//DTD SVG 1.1//EN" "http://www.w3.org/Graphics/SVG/1.1/DTD/svg11.dtd">
<svg xmlns="http://www.w3.org/2000/svg" xml:space="preserve" width="200px" height="200px" version="1.1" style="shape-rendering:geometricPrecision; text-rendering:geometricPrecision; image-rendering:optimizeQuality; fill-rule:evenodd; clip-rule:evenodd"
viewBox="0 0 200 200"
 xmlns:xlink="http://www.w3.org/1999/xlink">
 <defs>
  <style type="text/css">
   <![CDATA[
    .fil3 {fill:#3C4B58}
    .fil0 {fill:#274C77}
    .fil1 {fill:#A7C4D2;fill-rule:nonzero}
    .fil2 {fill:white;fill-rule:nonzero}
   ]]>
  </style>
 </defs>
 <g id="Arte">
  <path class="fil0" d="M18 0l164 0c9.9,0 18,8.1 18,18l0 164c0,9.9 -8.1,18 -18,18l-164 0c-9.9,0 -18,-8.1 -18,-18l0 -164c0,-9.9 8.1,-18 18,-18z"/>
  <g id="_1312989069664">
   <path class="fil1" d="M144.79 115.38c-3.05,1.97 -6.41,3.52 -10.07,4.64 -3.67,1.11 -7.54,1.67 -11.61,1.67 -5.49,0 -10.58,-0.96 -15.27,-2.9 -4.68,-1.93 -8.72,-4.56 -12.11,-7.88 -3.39,-3.33 -6.06,-7.23 -7.99,-11.71 -1.93,-4.48 -2.9,-9.26 -2.9,-14.35l0 -0.21c0,-5.09 0.97,-9.89 2.9,-14.4 1.93,-4.51 4.63,-8.45 8.09,-11.81 3.46,-3.36 7.53,-6 12.22,-7.94 4.68,-1.93 9.77,-2.9 15.27,-2.9 5.49,0 10.58,0.97 15.26,2.9 4.69,1.94 8.72,4.57 12.12,7.89 3.39,3.33 6.05,7.23 7.99,11.71 1.93,4.48 2.9,9.26 2.9,14.35l0 0.2c0,3.8 -0.54,7.43 -1.63,10.9 -1.09,3.46 -2.65,6.65 -4.68,9.56l7.33 6.21 -9.98 11.1 -7.84 -7.03zm-21.51 -11.19c2.53,0 4.94,-0.44 7.26,-1.33l-9.87 -8.44 9.97 -11.2 9.67 8.75c0.75,-2.1 1.12,-4.41 1.12,-6.92l0 -0.2c0,-2.58 -0.44,-5.04 -1.32,-7.38 -0.88,-2.34 -2.14,-4.41 -3.76,-6.21 -1.63,-1.8 -3.59,-3.22 -5.86,-4.28 -2.27,-1.05 -4.77,-1.57 -7.48,-1.57 -2.71,0 -5.17,0.52 -7.38,1.57 -2.2,1.06 -4.11,2.46 -5.7,4.23 -1.59,1.76 -2.82,3.8 -3.66,6.11 -0.85,2.3 -1.28,4.74 -1.28,7.32l0 0.21c0,2.58 0.44,5.04 1.33,7.38 0.9,2.34 2.13,4.39 3.73,6.16 1.61,1.76 3.53,3.17 5.78,4.22 2.24,1.05 4.74,1.58 7.45,1.58z"/>
   <path class="fil2" d="M37.39 49.02l27.49 0c6.38,0 12.06,0.86 17.05,2.59 4.98,1.73 9.19,4.16 12.62,7.28 3.43,3.12 6.04,6.84 7.84,11.15 1.79,4.31 2.69,9.04 2.69,14.2l0 0.2c0,5.16 -0.91,9.92 -2.74,14.3 -1.84,4.38 -4.48,8.16 -7.94,11.35 -3.47,3.19 -7.72,5.68 -12.78,7.48 -5.05,1.8 -10.77,2.7 -17.15,2.7l-27.08 0 0 -71.25zm27.83 53.74c5.92,0 10.69,-1.56 14.3,-4.68 3.61,-3.12 5.41,-7.57 5.41,-13.34l0 -0.2c0,-5.7 -1.8,-10.13 -5.41,-13.28 -3.61,-3.16 -8.38,-4.74 -14.3,-4.74l-8.08 0 0 36.24 8.08 0z"/>
  </g>
  <path class="fil3" d="M200 157.91l0 24.09c0,9.9 -8.1,18 -18,18l-164 0c-9.9,0 -18,-8.1 -18,-18l0 -24.09 200 0z"/>
  <path class="fil2" d="M64.59 169.09l7.88 0c1.57,0 2.73,0.07 3.5,0.19 0.77,0.14 1.45,0.41 2.06,0.82 0.61,0.41 1.11,0.96 1.51,1.64 0.41,0.69 0.61,1.46 0.61,2.31 0,0.91 -0.25,1.77 -0.74,2.53 -0.5,0.77 -1.17,1.35 -2.02,1.73 1.2,0.36 2.11,0.95 2.76,1.8 0.64,0.84 0.97,1.83 0.97,2.98 0,0.9 -0.21,1.77 -0.63,2.62 -0.42,0.85 -0.99,1.53 -1.71,2.04 -0.72,0.5 -1.61,0.82 -2.67,0.94 -0.67,0.06 -2.27,0.11 -4.81,0.13l-6.71 0 0 -19.73zm3.99 3.28l0 4.55 2.61 0c1.55,0 2.51,-0.03 2.89,-0.07 0.68,-0.08 1.21,-0.32 1.6,-0.71 0.39,-0.38 0.59,-0.89 0.59,-1.53 0,-0.61 -0.17,-1.1 -0.51,-1.48 -0.33,-0.38 -0.84,-0.61 -1.49,-0.69 -0.4,-0.05 -1.53,-0.07 -3.4,-0.07l-2.29 0zm0 7.83l0 5.28 3.69 0c1.43,0 2.35,-0.04 2.73,-0.12 0.6,-0.11 1.08,-0.37 1.45,-0.78 0.37,-0.43 0.56,-0.98 0.56,-1.68 0,-0.6 -0.14,-1.1 -0.43,-1.52 -0.28,-0.41 -0.7,-0.71 -1.25,-0.9 -0.54,-0.19 -1.72,-0.28 -3.53,-0.28l-3.22 0zm15.9 8.62l0 -19.73 14.6 0 0 3.34 -10.6 0 0 4.38 9.86 0 0 3.33 -9.86 0 0 5.34 10.99 0 0 3.34 -14.99 0zm22.81 0l0 -16.39 -5.84 0 0 -3.34 15.65 0 0 3.34 -5.81 0 0 16.39 -4 0zm28.12 0l-4.3 0 -1.7 -4.49 -7.91 0 -1.64 4.49 -4.23 0 7.66 -19.73 4.22 0 7.9 19.73zm-7.3 -7.83l-2.74 -7.3 -2.66 7.3 5.4 0z"/>
 </g>
</svg>
