<?xml version="1.0" encoding="UTF-8"?>
<!DOCTYPE svg PUBLIC "-//W3C//DTD SVG 1.1//EN" "http://www.w3.org/Graphics/SVG/1.1/DTD/svg11.dtd">
<!-- Creator: CorelDRAW 2018 (64 Bit) -->
<svg xmlns="http://www.w3.org/2000/svg" xml:space="preserve" width="430px" height="70px" version="1.1" style="shape-rendering:geometricPrecision; text-rendering:geometricPrecision; image-rendering:optimizeQuality; fill-rule:evenodd; clip-rule:evenodd"
viewBox="0 0 430 70"
 xmlns:xlink="http://www.w3.org/1999/xlink">
 <defs>
  <style type="text/css">
   <![CDATA[
    .fil0 {fill:none}
    .fil2 {fill:white}
    .fil3 {fill:#A7C4D2;fill-rule:nonzero}
    .fil1 {fill:white;fill-rule:nonzero}
   ]]>
  </style>
 </defs>
 <g id="Arte">
  <metadata id="CorelCorpID_0Corel-Layer"/>
  <polygon class="fil0" points="0,0 430,0 430,70 0,70 "/>
  <path class="fil1" d="M88.17 5.88l6.84 0 5.56 9.03 5.57 -9.03 6.83 0 0 23.33 -6.43 0 0 -13.4 -5.95 9.13 -0.13 0 -5.92 -9.06 0 13.33 -6.37 0 0 -23.33zm42.67 14.16l-2.6 -6.63 -2.63 6.63 5.23 0zm-5.67 -14.33l6.24 0 9.93 23.5 -6.93 0 -1.7 -4.17 -9 0 -1.67 4.17 -6.8 0 9.93 -23.5zm27.97 11.77c1.15,0 2.06,-0.27 2.72,-0.82 0.65,-0.55 0.98,-1.29 0.98,-2.23l0 -0.07c0,-1 -0.33,-1.77 -0.98,-2.29 -0.66,-0.53 -1.58,-0.79 -2.75,-0.79l-3.04 0 0 6.2 3.07 0zm-9.53 -11.6l10 0c1.46,0 2.8,0.18 4,0.55 1.2,0.36 2.22,0.9 3.06,1.6 0.85,0.7 1.5,1.56 1.95,2.58 0.46,1.02 0.69,2.18 0.69,3.47l0 0.06c0,1.38 -0.25,2.59 -0.75,3.64 -0.5,1.04 -1.2,1.92 -2.09,2.63 -0.89,0.71 -1.95,1.25 -3.18,1.6 -1.23,0.36 -2.57,0.53 -4.02,0.53l-3.2 0 0 6.67 -6.46 0 0 -23.33zm36.16 14.16l-2.6 -6.63 -2.63 6.63 5.23 0zm-5.67 -14.33l6.24 0 9.93 23.5 -6.93 0 -1.7 -4.17 -9 0 -1.67 4.17 -6.8 0 9.93 -23.5zm36.78 17.77c1.94,0 3.5,-0.51 4.68,-1.54 1.19,-1.02 1.78,-2.47 1.78,-4.36l0 -0.07c0,-1.87 -0.59,-3.32 -1.78,-4.35 -1.18,-1.03 -2.74,-1.55 -4.68,-1.55l-2.64 0 0 11.87 2.64 0zm-9.11 -17.6l9 0c2.09,0 3.95,0.28 5.58,0.85 1.64,0.56 3.01,1.36 4.14,2.38 1.12,1.02 1.97,2.24 2.56,3.65 0.59,1.41 0.89,2.96 0.89,4.65l0 0.07c0,1.69 -0.3,3.25 -0.9,4.68 -0.6,1.43 -1.47,2.67 -2.6,3.72 -1.14,1.04 -2.53,1.86 -4.19,2.45 -1.65,0.59 -3.52,0.88 -5.61,0.88l-8.87 0 0 -23.33zm25.63 0l6.5 0 0 23.33 -6.5 0 0 -23.33zm22.67 23.8c-1.82,0 -3.5,-0.3 -5.05,-0.89 -1.54,-0.58 -2.88,-1.41 -4.02,-2.48 -1.13,-1.07 -2.02,-2.34 -2.66,-3.82 -0.65,-1.47 -0.97,-3.1 -0.97,-4.88l0 -0.07c0,-1.68 0.32,-3.27 0.95,-4.75 0.63,-1.47 1.5,-2.76 2.6,-3.86 1.11,-1.1 2.43,-1.96 3.97,-2.59 1.54,-0.62 3.21,-0.93 5.01,-0.93 2.07,0 3.85,0.3 5.35,0.9 1.5,0.6 2.88,1.43 4.12,2.5l-3.8 4.57c-0.84,-0.71 -1.7,-1.26 -2.58,-1.64 -0.88,-0.37 -1.9,-0.56 -3.05,-0.56 -0.85,0 -1.63,0.16 -2.35,0.5 -0.72,0.33 -1.35,0.79 -1.89,1.36 -0.53,0.58 -0.95,1.26 -1.26,2.04 -0.31,0.78 -0.47,1.61 -0.47,2.5l0 0.06c0,0.94 0.16,1.8 0.47,2.6 0.31,0.8 0.75,1.49 1.32,2.05 0.57,0.57 1.24,1.02 2.01,1.34 0.77,0.32 1.62,0.48 2.56,0.48 1.51,0 2.76,-0.32 3.74,-0.97l0 -2.83 -4.6 0 0 -4.73 10.73 0 0 10.5c-1.24,1.02 -2.71,1.88 -4.4,2.56 -1.69,0.69 -3.6,1.04 -5.73,1.04zm13.87 -23.8l6.5 0 0 23.33 -6.5 0 0 -23.33zm16.46 5.66l-7 0 0 -5.66 20.47 0 0 5.66 -7 0 0 17.67 -6.47 0 0 -17.67zm30.04 8.5l-2.6 -6.63 -2.64 6.63 5.24 0zm-5.67 -14.33l6.23 0 9.94 23.5 -6.94 0 -1.69 -4.17 -9 0 -1.67 4.17 -6.8 0 9.93 -23.5zm18.43 0.17l6.47 0 0 17.66 11.3 0 0 5.67 -17.77 0 0 -23.33z"/>
  <path class="fil1" d="M27.35 62.22c1.1,0 2.11,-0.17 3.02,-0.52 0.9,-0.36 1.67,-0.84 2.3,-1.46 0.63,-0.62 1.11,-1.36 1.46,-2.21 0.34,-0.84 0.51,-1.75 0.51,-2.73l0 -0.05c0,-0.97 -0.17,-1.88 -0.51,-2.73 -0.35,-0.85 -0.83,-1.58 -1.46,-2.21 -0.63,-0.63 -1.4,-1.13 -2.3,-1.49 -0.91,-0.36 -1.92,-0.54 -3.02,-0.54l-4.13 0 0 13.94 4.13 0zm-6.12 -15.78l6.12 0c1.37,0 2.63,0.23 3.78,0.67 1.15,0.45 2.14,1.06 2.97,1.85 0.83,0.79 1.48,1.72 1.93,2.78 0.45,1.07 0.68,2.22 0.68,3.46l0 0.05c0,1.24 -0.23,2.4 -0.68,3.48 -0.45,1.07 -1.1,2 -1.93,2.79 -0.83,0.79 -1.82,1.41 -2.97,1.86 -1.15,0.46 -2.41,0.68 -3.78,0.68l-6.12 0 0 -17.62zm19.68 0l12.74 0 0 1.79 -10.75 0 0 6.07 9.61 0 0 1.78 -9.61 0 0 6.19 10.87 0 0 1.79 -12.86 0 0 -17.62zm23.22 9.62c0.72,0 1.38,-0.09 1.98,-0.28 0.6,-0.18 1.11,-0.45 1.54,-0.79 0.43,-0.35 0.76,-0.76 0.98,-1.23 0.23,-0.47 0.34,-1 0.34,-1.59l0 -0.05c0,-1.26 -0.43,-2.22 -1.3,-2.87 -0.86,-0.65 -2.01,-0.97 -3.44,-0.97l-4.47 0 0 7.78 4.37 0zm-6.36 -9.62l6.6 0c0.99,0 1.89,0.13 2.7,0.39 0.82,0.26 1.51,0.63 2.09,1.11 0.58,0.48 1.03,1.06 1.34,1.75 0.31,0.69 0.46,1.47 0.46,2.34l0 0.05c0,0.96 -0.18,1.79 -0.55,2.51 -0.37,0.71 -0.87,1.31 -1.5,1.8 -0.63,0.48 -1.36,0.85 -2.2,1.09 -0.84,0.24 -1.73,0.37 -2.67,0.37l-4.28 0 0 6.21 -1.99 0 0 -17.62zm28.24 11.18l-4 -8.99 -4.03 8.99 8.03 0zm-4.9 -11.3l1.86 0 8.03 17.74 -2.14 0 -2.07 -4.65 -9.59 0 -2.09 4.65 -2.03 0 8.03 -17.74zm20.77 9.11c0.66,0 1.26,-0.08 1.82,-0.25 0.55,-0.17 1.03,-0.41 1.44,-0.72 0.4,-0.31 0.72,-0.69 0.94,-1.13 0.23,-0.45 0.34,-0.95 0.34,-1.52l0 -0.06c0,-1.09 -0.39,-1.94 -1.18,-2.55 -0.79,-0.61 -1.9,-0.92 -3.33,-0.92l-5.45 0 0 7.15 5.42 0zm-7.41 -8.99l7.58 0c1.09,0 2.05,0.16 2.9,0.47 0.85,0.31 1.55,0.74 2.1,1.3 0.44,0.43 0.78,0.94 1.01,1.53 0.23,0.59 0.35,1.23 0.35,1.94l0 0.05c0,0.74 -0.12,1.4 -0.35,1.97 -0.23,0.58 -0.57,1.09 -0.99,1.52 -0.43,0.42 -0.94,0.77 -1.53,1.05 -0.58,0.28 -1.22,0.48 -1.91,0.59l5.41 7.2 -2.44 0 -5.11 -6.84 -0.05 0 -4.98 0 0 6.84 -1.99 0 0 -17.62zm22.85 1.84l-5.91 0 0 -1.84 13.81 0 0 1.84 -5.91 0 0 15.78 -1.99 0 0 -15.78zm23.08 9.34l-4 -8.99 -4.03 8.99 8.03 0zm-4.91 -11.3l1.86 0 8.03 17.74 -2.14 0 -2.06 -4.65 -9.59 0 -2.09 4.65 -2.04 0 8.03 -17.74zm13.37 0.12l2.01 0 6.42 9.62 6.42 -9.62 2.01 0 0 17.62 -1.99 0 0 -14.27 -6.42 9.44 -0.1 0 -6.42 -9.41 0 14.24 -1.93 0 0 -17.62zm21.84 0l12.74 0 0 1.79 -10.75 0 0 6.07 9.61 0 0 1.78 -9.61 0 0 6.19 10.87 0 0 1.79 -12.86 0 0 -17.62zm16.87 0l1.86 0 11.1 14.12 0 -14.12 1.93 0 0 17.62 -1.58 0 -11.38 -14.44 0 14.44 -1.93 0 0 -17.62zm24.53 1.84l-5.91 0 0 -1.84 13.82 0 0 1.84 -5.92 0 0 15.78 -1.99 0 0 -15.78zm19.89 14.25c1,0 1.93,-0.19 2.78,-0.57 0.84,-0.38 1.57,-0.89 2.17,-1.55 0.61,-0.65 1.08,-1.42 1.43,-2.29 0.34,-0.87 0.51,-1.81 0.51,-2.82l0 -0.05c0,-1 -0.17,-1.95 -0.51,-2.83 -0.35,-0.88 -0.83,-1.65 -1.45,-2.3 -0.62,-0.66 -1.36,-1.18 -2.2,-1.56 -0.85,-0.39 -1.78,-0.58 -2.78,-0.58 -1.01,0 -1.94,0.19 -2.79,0.57 -0.84,0.37 -1.57,0.89 -2.17,1.54 -0.61,0.66 -1.08,1.42 -1.42,2.29 -0.35,0.88 -0.52,1.82 -0.52,2.82l0 0.05c0,1.01 0.17,1.95 0.52,2.83 0.34,0.89 0.82,1.65 1.44,2.31 0.62,0.65 1.36,1.17 2.21,1.56 0.84,0.38 1.77,0.58 2.78,0.58zm-0.05 1.83c-1.35,0 -2.57,-0.24 -3.67,-0.73 -1.1,-0.48 -2.04,-1.14 -2.83,-1.97 -0.79,-0.83 -1.39,-1.8 -1.82,-2.9 -0.43,-1.09 -0.64,-2.25 -0.64,-3.46l0 -0.05c0,-1.21 0.21,-2.36 0.65,-3.47 0.44,-1.11 1.05,-2.08 1.84,-2.91 0.79,-0.83 1.73,-1.49 2.84,-1.98 1.11,-0.5 2.33,-0.75 3.68,-0.75 1.34,0 2.56,0.25 3.66,0.73 1.1,0.49 2.04,1.15 2.83,1.98 0.79,0.83 1.4,1.79 1.82,2.89 0.43,1.1 0.65,2.25 0.65,3.46 0.01,0.02 0.01,0.04 0,0.05 0,1.21 -0.22,2.37 -0.66,3.48 -0.43,1.1 -1.05,2.07 -1.84,2.9 -0.78,0.83 -1.73,1.5 -2.84,1.99 -1.11,0.5 -2.33,0.74 -3.67,0.74zm26.88 -2.14c1.1,0 2.11,-0.17 3.02,-0.52 0.9,-0.36 1.67,-0.84 2.3,-1.46 0.63,-0.62 1.11,-1.36 1.46,-2.21 0.34,-0.84 0.51,-1.75 0.51,-2.73l0 -0.05c0,-0.97 -0.17,-1.88 -0.51,-2.73 -0.35,-0.85 -0.83,-1.58 -1.46,-2.21 -0.63,-0.63 -1.4,-1.13 -2.3,-1.49 -0.91,-0.36 -1.92,-0.54 -3.02,-0.54l-4.13 0 0 13.94 4.13 0zm-6.12 -15.78l6.12 0c1.37,0 2.64,0.23 3.78,0.67 1.15,0.45 2.14,1.06 2.97,1.85 0.83,0.79 1.48,1.72 1.93,2.78 0.45,1.07 0.68,2.22 0.68,3.46l0 0.05c0,1.24 -0.23,2.4 -0.68,3.48 -0.45,1.07 -1.1,2 -1.93,2.79 -0.83,0.79 -1.82,1.41 -2.97,1.86 -1.14,0.46 -2.41,0.68 -3.78,0.68l-6.12 0 0 -17.62zm19.68 0l12.74 0 0 1.79 -10.75 0 0 6.07 9.61 0 0 1.78 -9.61 0 0 6.19 10.87 0 0 1.79 -12.86 0 0 -17.62zm32.65 16.09c0.78,0 1.52,-0.12 2.21,-0.36 0.69,-0.23 1.3,-0.56 1.84,-0.98l-3.27 -2.79 1.33 -1.49 3.25 2.95c0.48,-0.62 0.86,-1.32 1.13,-2.09 0.27,-0.77 0.4,-1.59 0.4,-2.47l0 -0.05c0,-1 -0.17,-1.95 -0.51,-2.83 -0.35,-0.88 -0.83,-1.65 -1.45,-2.3 -0.62,-0.66 -1.36,-1.18 -2.2,-1.56 -0.85,-0.39 -1.78,-0.58 -2.78,-0.58 -1.01,0 -1.94,0.19 -2.79,0.57 -0.84,0.37 -1.57,0.89 -2.17,1.54 -0.61,0.66 -1.08,1.42 -1.42,2.29 -0.35,0.88 -0.52,1.82 -0.52,2.82l0 0.05c0,1.01 0.17,1.95 0.52,2.83 0.34,0.89 0.82,1.65 1.44,2.31 0.62,0.65 1.36,1.17 2.2,1.56 0.85,0.38 1.78,0.58 2.79,0.58zm5.51 -0.05c-0.76,0.58 -1.6,1.04 -2.52,1.38 -0.92,0.34 -1.94,0.5 -3.04,0.5 -1.35,0 -2.57,-0.24 -3.67,-0.73 -1.1,-0.48 -2.04,-1.14 -2.83,-1.97 -0.79,-0.83 -1.39,-1.8 -1.82,-2.9 -0.43,-1.09 -0.64,-2.25 -0.64,-3.46l0 -0.05c0,-1.21 0.21,-2.36 0.65,-3.47 0.44,-1.11 1.05,-2.08 1.84,-2.91 0.79,-0.83 1.73,-1.49 2.84,-1.98 1.11,-0.5 2.33,-0.75 3.68,-0.75 1.34,0 2.56,0.25 3.66,0.73 1.1,0.49 2.04,1.15 2.83,1.98 0.79,0.83 1.4,1.79 1.82,2.89 0.43,1.1 0.65,2.25 0.65,3.46 0.01,0.02 0.01,0.04 0,0.05 0,1.11 -0.18,2.17 -0.55,3.19 -0.36,1.01 -0.88,1.92 -1.57,2.73l2.34 1.94 -1.36 1.48 -2.31 -2.11zm14.7 1.86c-1.09,0 -2.09,-0.16 -2.99,-0.49 -0.89,-0.33 -1.67,-0.82 -2.31,-1.46 -0.65,-0.65 -1.15,-1.45 -1.5,-2.41 -0.35,-0.95 -0.53,-2.05 -0.53,-3.29l0 -10.25 1.99 0 0 10.12c0,1.91 0.47,3.38 1.42,4.41 0.95,1.02 2.27,1.53 3.97,1.53 1.62,0 2.92,-0.48 3.87,-1.46 0.96,-0.97 1.44,-2.42 1.44,-4.35l0 -10.25 1.98 0 0 10.1c0,1.29 -0.17,2.42 -0.52,3.39 -0.36,0.98 -0.85,1.79 -1.5,2.45 -0.65,0.65 -1.42,1.14 -2.32,1.47 -0.89,0.33 -1.9,0.49 -3,0.49zm14.82 -23.11l2.01 0.94 -2.84 2.69 -1.56 0 2.39 -3.63zm-2.59 5.21l1.99 0 0 17.62 -1.99 0 0 -17.62zm7.15 0l2.01 0 6.42 9.62 6.42 -9.62 2.01 0 0 17.62 -1.99 0 0 -14.27 -6.42 9.44 -0.1 0 -6.42 -9.41 0 14.24 -1.93 0 0 -17.62zm22.02 0l1.99 0 0 17.62 -1.99 0 0 -17.62zm15.2 17.92c-1.28,0 -2.45,-0.23 -3.52,-0.7 -1.08,-0.47 -2.01,-1.11 -2.8,-1.93 -0.79,-0.81 -1.4,-1.77 -1.85,-2.88 -0.44,-1.11 -0.66,-2.29 -0.66,-3.55l0 -0.05c0,-1.24 0.22,-2.41 0.66,-3.52 0.45,-1.11 1.06,-2.08 1.85,-2.91 0.79,-0.83 1.73,-1.48 2.82,-1.96 1.09,-0.48 2.28,-0.72 3.57,-0.72 0.81,0 1.54,0.07 2.18,0.2 0.65,0.14 1.25,0.33 1.8,0.57 0.56,0.24 1.07,0.54 1.54,0.88 0.47,0.34 0.92,0.73 1.36,1.15l-1.36 1.46c-0.76,-0.71 -1.57,-1.29 -2.43,-1.74 -0.87,-0.45 -1.9,-0.68 -3.11,-0.68 -0.97,0 -1.87,0.18 -2.71,0.55 -0.83,0.37 -1.55,0.88 -2.16,1.54 -0.61,0.65 -1.09,1.42 -1.43,2.3 -0.35,0.88 -0.52,1.83 -0.52,2.83l0 0.05c0,1.03 0.17,1.98 0.52,2.86 0.34,0.88 0.82,1.65 1.43,2.3 0.61,0.66 1.33,1.17 2.16,1.55 0.84,0.38 1.74,0.57 2.71,0.57 1.21,0 2.25,-0.23 3.12,-0.67 0.87,-0.44 1.73,-1.07 2.57,-1.88l1.31 1.29c-0.46,0.47 -0.93,0.89 -1.43,1.27 -0.49,0.38 -1.02,0.7 -1.59,0.97 -0.57,0.27 -1.19,0.48 -1.84,0.63 -0.66,0.15 -1.39,0.22 -2.19,0.22zm21.95 -6.74l-4.01 -8.99 -4.02 8.99 8.03 0zm-4.91 -11.3l1.86 0 8.03 17.74 -2.14 0 -2.06 -4.65 -9.59 0 -2.09 4.65 -2.04 0 8.03 -17.74z"/>
  <path class="fil2" d="M357.49 5.41l19.9 0c3.56,0 6.46,2.91 6.46,6.46l0 0c0,3.55 -2.9,6.46 -6.46,6.46l-19.9 0c-3.55,0 -6.45,-2.91 -6.45,-6.46l0 0c0,-3.55 2.9,-6.46 6.45,-6.46z"/>
  <path class="fil3" d="M356.2 8.74l2.51 0c0.49,0 0.86,0.02 1.11,0.06 0.24,0.04 0.46,0.13 0.65,0.26 0.19,0.13 0.35,0.3 0.48,0.52 0.13,0.22 0.19,0.46 0.19,0.73 0,0.29 -0.08,0.56 -0.23,0.81 -0.16,0.24 -0.37,0.42 -0.64,0.54 0.38,0.12 0.67,0.31 0.87,0.57 0.21,0.27 0.31,0.59 0.31,0.95 0,0.29 -0.07,0.56 -0.2,0.83 -0.13,0.27 -0.31,0.49 -0.54,0.65 -0.23,0.16 -0.51,0.26 -0.85,0.3 -0.21,0.02 -0.72,0.03 -1.53,0.04l-2.13 0 0 -6.26zm1.27 1.04l0 1.44 0.83 0c0.49,0 0.79,-0.01 0.92,-0.02 0.21,-0.03 0.38,-0.1 0.5,-0.22 0.13,-0.13 0.19,-0.29 0.19,-0.49 0,-0.19 -0.05,-0.35 -0.16,-0.47 -0.11,-0.12 -0.27,-0.2 -0.48,-0.22 -0.12,-0.01 -0.48,-0.02 -1.07,-0.02l-0.73 0zm0 2.48l0 1.68 1.17 0c0.46,0 0.75,-0.01 0.87,-0.04 0.19,-0.03 0.34,-0.11 0.46,-0.25 0.12,-0.13 0.18,-0.31 0.18,-0.53 0,-0.19 -0.05,-0.35 -0.14,-0.48 -0.09,-0.13 -0.22,-0.23 -0.4,-0.29 -0.17,-0.06 -0.54,-0.09 -1.12,-0.09l-1.02 0zm5.05 2.74l0 -6.26 4.63 0 0 1.06 -3.36 0 0 1.39 3.13 0 0 1.05 -3.13 0 0 1.7 3.49 0 0 1.06 -4.76 0zm7.24 0l0 -5.2 -1.85 0 0 -1.06 4.96 0 0 1.06 -1.84 0 0 5.2 -1.27 0zm8.93 0l-1.37 0 -0.54 -1.43 -2.51 0 -0.52 1.43 -1.34 0 2.43 -6.26 1.34 0 2.51 6.26zm-2.32 -2.48l-0.87 -2.32 -0.85 2.32 1.72 0z"/>
 </g>
</svg>
