<?xml version="1.0" encoding="UTF-8"?>
<!DOCTYPE svg PUBLIC "-//W3C//DTD SVG 1.1//EN" "http://www.w3.org/Graphics/SVG/1.1/DTD/svg11.dtd">
<!-- Creator: CorelDRAW 2018 (64 Bit) -->
<svg xmlns="http://www.w3.org/2000/svg" xml:space="preserve" width="430px" height="70px" version="1.1" style="shape-rendering:geometricPrecision; text-rendering:geometricPrecision; image-rendering:optimizeQuality; fill-rule:evenodd; clip-rule:evenodd"
viewBox="0 0 430 70"
 xmlns:xlink="http://www.w3.org/1999/xlink">
 <defs>
  <style type="text/css">
   <![CDATA[
    .fil0 {fill:none}
    .fil2 {fill:white}
    .fil3 {fill:#A7C4D2;fill-rule:nonzero}
    .fil1 {fill:#A7C4D2;fill-rule:nonzero}
    .fil4 {fill:white;fill-rule:nonzero}
   ]]>
  </style>
 </defs>
 <g id="Arte">
  <metadata id="CorelCorpID_0Corel-Layer"/>
  <polygon class="fil0" points="0,0 430,0 430,70 0,70 "/>
  <path class="fil1" d="M27.35 62.22c1.1,0 2.11,-0.17 3.02,-0.52 0.9,-0.36 1.67,-0.84 2.3,-1.46 0.63,-0.62 1.11,-1.36 1.46,-2.21 0.34,-0.84 0.51,-1.75 0.51,-2.73l0 -0.05c0,-0.97 -0.17,-1.88 -0.51,-2.73 -0.35,-0.85 -0.83,-1.58 -1.46,-2.21 -0.63,-0.63 -1.4,-1.13 -2.3,-1.49 -0.91,-0.36 -1.92,-0.54 -3.02,-0.54l-4.13 0 0 13.94 4.13 0zm-6.12 -15.78l6.12 0c1.37,0 2.63,0.23 3.78,0.67 1.15,0.45 2.14,1.06 2.97,1.85 0.83,0.79 1.48,1.72 1.93,2.78 0.45,1.07 0.68,2.22 0.68,3.46l0 0.05c0,1.24 -0.23,2.4 -0.68,3.48 -0.45,1.07 -1.1,2 -1.93,2.79 -0.83,0.79 -1.82,1.41 -2.97,1.86 -1.15,0.46 -2.41,0.68 -3.78,0.68l-6.12 0 0 -17.62zm19.68 0l12.74 0 0 1.79 -10.75 0 0 6.07 9.61 0 0 1.78 -9.61 0 0 6.19 10.87 0 0 1.79 -12.86 0 0 -17.62zm23.22 9.62c0.72,0 1.38,-0.09 1.98,-0.28 0.6,-0.18 1.11,-0.45 1.54,-0.79 0.43,-0.35 0.76,-0.76 0.98,-1.23 0.23,-0.47 0.34,-1 0.34,-1.59l0 -0.05c0,-1.26 -0.43,-2.22 -1.3,-2.87 -0.86,-0.65 -2.01,-0.97 -3.44,-0.97l-4.47 0 0 7.78 4.37 0zm-6.36 -9.62l6.6 0c0.99,0 1.89,0.13 2.7,0.39 0.82,0.26 1.51,0.63 2.09,1.11 0.58,0.48 1.03,1.06 1.34,1.75 0.31,0.69 0.46,1.47 0.46,2.34l0 0.05c0,0.96 -0.18,1.79 -0.55,2.51 -0.37,0.71 -0.87,1.31 -1.5,1.8 -0.63,0.48 -1.36,0.85 -2.2,1.09 -0.84,0.24 -1.73,0.37 -2.67,0.37l-4.28 0 0 6.21 -1.99 0 0 -17.62zm28.24 11.18l-4 -8.99 -4.03 8.99 8.03 0zm-4.9 -11.3l1.86 0 8.03 17.74 -2.14 0 -2.07 -4.65 -9.59 0 -2.09 4.65 -2.03 0 8.03 -17.74zm20.77 9.11c0.66,0 1.26,-0.08 1.82,-0.25 0.55,-0.17 1.03,-0.41 1.44,-0.72 0.4,-0.31 0.72,-0.69 0.94,-1.13 0.23,-0.45 0.34,-0.95 0.34,-1.52l0 -0.06c0,-1.09 -0.39,-1.94 -1.18,-2.55 -0.79,-0.61 -1.9,-0.92 -3.33,-0.92l-5.45 0 0 7.15 5.42 0zm-7.41 -8.99l7.58 0c1.09,0 2.05,0.16 2.9,0.47 0.85,0.31 1.55,0.74 2.1,1.3 0.44,0.43 0.78,0.94 1.01,1.53 0.23,0.59 0.35,1.23 0.35,1.94l0 0.05c0,0.74 -0.12,1.4 -0.35,1.97 -0.23,0.58 -0.57,1.09 -0.99,1.52 -0.43,0.42 -0.94,0.77 -1.53,1.05 -0.58,0.28 -1.22,0.48 -1.91,0.59l5.41 7.2 -2.44 0 -5.11 -6.84 -0.05 0 -4.98 0 0 6.84 -1.99 0 0 -17.62zm22.85 1.84l-5.91 0 0 -1.84 13.81 0 0 1.84 -5.91 0 0 15.78 -1.99 0 0 -15.78zm23.08 9.34l-4 -8.99 -4.03 8.99 8.03 0zm-4.91 -11.3l1.86 0 8.03 17.74 -2.14 0 -2.06 -4.65 -9.59 0 -2.09 4.65 -2.04 0 8.03 -17.74zm13.37 0.12l2.01 0 6.42 9.62 6.42 -9.62 2.01 0 0 17.62 -1.99 0 0 -14.27 -6.42 9.44 -0.1 0 -6.42 -9.41 0 14.24 -1.93 0 0 -17.62zm21.84 0l12.74 0 0 1.79 -10.75 0 0 6.07 9.61 0 0 1.78 -9.61 0 0 6.19 10.87 0 0 1.79 -12.86 0 0 -17.62zm16.87 0l1.86 0 11.1 14.12 0 -14.12 1.93 0 0 17.62 -1.58 0 -11.38 -14.44 0 14.44 -1.93 0 0 -17.62zm24.53 1.84l-5.91 0 0 -1.84 13.82 0 0 1.84 -5.92 0 0 15.78 -1.99 0 0 -15.78zm19.89 14.25c1,0 1.93,-0.19 2.78,-0.57 0.84,-0.38 1.57,-0.89 2.17,-1.55 0.61,-0.65 1.08,-1.42 1.43,-2.29 0.34,-0.87 0.51,-1.81 0.51,-2.82l0 -0.05c0,-1 -0.17,-1.95 -0.51,-2.83 -0.35,-0.88 -0.83,-1.65 -1.45,-2.3 -0.62,-0.66 -1.36,-1.18 -2.2,-1.56 -0.85,-0.39 -1.78,-0.58 -2.78,-0.58 -1.01,0 -1.94,0.19 -2.79,0.57 -0.84,0.37 -1.57,0.89 -2.17,1.54 -0.61,0.66 -1.08,1.42 -1.42,2.29 -0.35,0.88 -0.52,1.82 -0.52,2.82l0 0.05c0,1.01 0.17,1.95 0.52,2.83 0.34,0.89 0.82,1.65 1.44,2.31 0.62,0.65 1.36,1.17 2.21,1.56 0.84,0.38 1.77,0.58 2.78,0.58zm-0.05 1.83c-1.35,0 -2.57,-0.24 -3.67,-0.73 -1.1,-0.48 -2.04,-1.14 -2.83,-1.97 -0.79,-0.83 -1.39,-1.8 -1.82,-2.9 -0.43,-1.09 -0.64,-2.25 -0.64,-3.46l0 -0.05c0,-1.21 0.21,-2.36 0.65,-3.47 0.44,-1.11 1.05,-2.08 1.84,-2.91 0.79,-0.83 1.73,-1.49 2.84,-1.98 1.11,-0.5 2.33,-0.75 3.68,-0.75 1.34,0 2.56,0.25 3.66,0.73 1.1,0.49 2.04,1.15 2.83,1.98 0.79,0.83 1.4,1.79 1.82,2.89 0.43,1.1 0.65,2.25 0.65,3.46 0.01,0.02 0.01,0.04 0,0.05 0,1.21 -0.22,2.37 -0.66,3.48 -0.43,1.1 -1.05,2.07 -1.84,2.9 -0.78,0.83 -1.73,1.5 -2.84,1.99 -1.11,0.5 -2.33,0.74 -3.67,0.74zm26.88 -2.14c1.1,0 2.11,-0.17 3.02,-0.52 0.9,-0.36 1.67,-0.84 2.3,-1.46 0.63,-0.62 1.11,-1.36 1.46,-2.21 0.34,-0.84 0.51,-1.75 0.51,-2.73l0 -0.05c0,-0.97 -0.17,-1.88 -0.51,-2.73 -0.35,-0.85 -0.83,-1.58 -1.46,-2.21 -0.63,-0.63 -1.4,-1.13 -2.3,-1.49 -0.91,-0.36 -1.92,-0.54 -3.02,-0.54l-4.13 0 0 13.94 4.13 0zm-6.12 -15.78l6.12 0c1.37,0 2.64,0.23 3.78,0.67 1.15,0.45 2.14,1.06 2.97,1.85 0.83,0.79 1.48,1.72 1.93,2.78 0.45,1.07 0.68,2.22 0.68,3.46l0 0.05c0,1.24 -0.23,2.4 -0.68,3.48 -0.45,1.07 -1.1,2 -1.93,2.79 -0.83,0.79 -1.82,1.41 -2.97,1.86 -1.14,0.46 -2.41,0.68 -3.78,0.68l-6.12 0 0 -17.62zm19.68 0l12.74 0 0 1.79 -10.75 0 0 6.07 9.61 0 0 1.78 -9.61 0 0 6.19 10.87 0 0 1.79 -12.86 0 0 -17.62zm32.65 16.09c0.78,0 1.52,-0.12 2.21,-0.36 0.69,-0.23 1.3,-0.56 1.84,-0.98l-3.27 -2.79 1.33 -1.49 3.25 2.95c0.48,-0.62 0.86,-1.32 1.13,-2.09 0.27,-0.77 0.4,-1.59 0.4,-2.47l0 -0.05c0,-1 -0.17,-1.95 -0.51,-2.83 -0.35,-0.88 -0.83,-1.65 -1.45,-2.3 -0.62,-0.66 -1.36,-1.18 -2.2,-1.56 -0.85,-0.39 -1.78,-0.58 -2.78,-0.58 -1.01,0 -1.94,0.19 -2.79,0.57 -0.84,0.37 -1.57,0.89 -2.17,1.54 -0.61,0.66 -1.08,1.42 -1.42,2.29 -0.35,0.88 -0.52,1.82 -0.52,2.82l0 0.05c0,1.01 0.17,1.95 0.52,2.83 0.34,0.89 0.82,1.65 1.44,2.31 0.62,0.65 1.36,1.17 2.2,1.56 0.85,0.38 1.78,0.58 2.79,0.58zm5.51 -0.05c-0.76,0.58 -1.6,1.04 -2.52,1.38 -0.92,0.34 -1.94,0.5 -3.04,0.5 -1.35,0 -2.57,-0.24 -3.67,-0.73 -1.1,-0.48 -2.04,-1.14 -2.83,-1.97 -0.79,-0.83 -1.39,-1.8 -1.82,-2.9 -0.43,-1.09 -0.64,-2.25 -0.64,-3.46l0 -0.05c0,-1.21 0.21,-2.36 0.65,-3.47 0.44,-1.11 1.05,-2.08 1.84,-2.91 0.79,-0.83 1.73,-1.49 2.84,-1.98 1.11,-0.5 2.33,-0.75 3.68,-0.75 1.34,0 2.56,0.25 3.66,0.73 1.1,0.49 2.04,1.15 2.83,1.98 0.79,0.83 1.4,1.79 1.82,2.89 0.43,1.1 0.65,2.25 0.65,3.46 0.01,0.02 0.01,0.04 0,0.05 0,1.11 -0.18,2.17 -0.55,3.19 -0.36,1.01 -0.88,1.92 -1.57,2.73l2.34 1.94 -1.36 1.48 -2.31 -2.11zm14.7 1.86c-1.09,0 -2.09,-0.16 -2.99,-0.49 -0.89,-0.33 -1.67,-0.82 -2.31,-1.46 -0.65,-0.65 -1.15,-1.45 -1.5,-2.41 -0.35,-0.95 -0.53,-2.05 -0.53,-3.29l0 -10.25 1.99 0 0 10.12c0,1.91 0.47,3.38 1.42,4.41 0.95,1.02 2.27,1.53 3.97,1.53 1.62,0 2.92,-0.48 3.87,-1.46 0.96,-0.97 1.44,-2.42 1.44,-4.35l0 -10.25 1.98 0 0 10.1c0,1.29 -0.17,2.42 -0.52,3.39 -0.36,0.98 -0.85,1.79 -1.5,2.45 -0.65,0.65 -1.42,1.14 -2.32,1.47 -0.89,0.33 -1.9,0.49 -3,0.49zm14.82 -23.11l2.01 0.94 -2.84 2.69 -1.56 0 2.39 -3.63zm-2.59 5.21l1.99 0 0 17.62 -1.99 0 0 -17.62zm7.15 0l2.01 0 6.42 9.62 6.42 -9.62 2.01 0 0 17.62 -1.99 0 0 -14.27 -6.42 9.44 -0.1 0 -6.42 -9.41 0 14.24 -1.93 0 0 -17.62zm22.02 0l1.99 0 0 17.62 -1.99 0 0 -17.62zm15.2 17.92c-1.28,0 -2.45,-0.23 -3.52,-0.7 -1.08,-0.47 -2.01,-1.11 -2.8,-1.93 -0.79,-0.81 -1.4,-1.77 -1.85,-2.88 -0.44,-1.11 -0.66,-2.29 -0.66,-3.55l0 -0.05c0,-1.24 0.22,-2.41 0.66,-3.52 0.45,-1.11 1.06,-2.08 1.85,-2.91 0.79,-0.83 1.73,-1.48 2.82,-1.96 1.09,-0.48 2.28,-0.72 3.57,-0.72 0.81,0 1.54,0.07 2.18,0.2 0.65,0.14 1.25,0.33 1.8,0.57 0.56,0.24 1.07,0.54 1.54,0.88 0.47,0.34 0.92,0.73 1.36,1.15l-1.36 1.46c-0.76,-0.71 -1.57,-1.29 -2.43,-1.74 -0.87,-0.45 -1.9,-0.68 -3.11,-0.68 -0.97,0 -1.87,0.18 -2.71,0.55 -0.83,0.37 -1.55,0.88 -2.16,1.54 -0.61,0.65 -1.09,1.42 -1.43,2.3 -0.35,0.88 -0.52,1.83 -0.52,2.83l0 0.05c0,1.03 0.17,1.98 0.52,2.86 0.34,0.88 0.82,1.65 1.43,2.3 0.61,0.66 1.33,1.17 2.16,1.55 0.84,0.38 1.74,0.57 2.71,0.57 1.21,0 2.25,-0.23 3.12,-0.67 0.87,-0.44 1.73,-1.07 2.57,-1.88l1.31 1.29c-0.46,0.47 -0.93,0.89 -1.43,1.27 -0.49,0.38 -1.02,0.7 -1.59,0.97 -0.57,0.27 -1.19,0.48 -1.84,0.63 -0.66,0.15 -1.39,0.22 -2.19,0.22zm21.95 -6.74l-4.01 -8.99 -4.02 8.99 8.03 0zm-4.91 -11.3l1.86 0 8.03 17.74 -2.14 0 -2.06 -4.65 -9.59 0 -2.09 4.65 -2.04 0 8.03 -17.74z"/>
  <path class="fil2" d="M324.68 5.71l19.9 0c3.55,0 6.46,2.91 6.46,6.46l0 0c0,3.55 -2.91,6.46 -6.46,6.46l-19.9 0c-3.55,0 -6.46,-2.91 -6.46,-6.46l0 0c0,-3.55 2.91,-6.46 6.46,-6.46z"/>
  <path class="fil3" d="M323.39 9.04l2.5 0c0.5,0 0.87,0.02 1.11,0.06 0.25,0.04 0.46,0.13 0.66,0.26 0.19,0.13 0.35,0.3 0.48,0.52 0.13,0.22 0.19,0.46 0.19,0.73 0,0.29 -0.08,0.56 -0.24,0.81 -0.15,0.24 -0.37,0.42 -0.64,0.54 0.38,0.12 0.67,0.31 0.88,0.57 0.2,0.27 0.31,0.59 0.31,0.95 0,0.29 -0.07,0.56 -0.2,0.83 -0.14,0.27 -0.32,0.49 -0.55,0.65 -0.22,0.16 -0.51,0.26 -0.84,0.3 -0.21,0.02 -0.72,0.03 -1.53,0.04l-2.13 0 0 -6.26zm1.27 1.04l0 1.44 0.82 0c0.5,0 0.8,-0.01 0.92,-0.02 0.22,-0.03 0.39,-0.1 0.51,-0.22 0.12,-0.13 0.19,-0.29 0.19,-0.49 0,-0.19 -0.06,-0.35 -0.16,-0.47 -0.11,-0.12 -0.27,-0.2 -0.48,-0.22 -0.12,-0.01 -0.48,-0.02 -1.08,-0.02l-0.72 0zm0 2.48l0 1.68 1.17 0c0.45,0 0.74,-0.01 0.87,-0.04 0.18,-0.03 0.34,-0.11 0.45,-0.25 0.12,-0.13 0.18,-0.31 0.18,-0.53 0,-0.19 -0.04,-0.35 -0.13,-0.48 -0.09,-0.13 -0.23,-0.23 -0.4,-0.29 -0.17,-0.06 -0.55,-0.09 -1.12,-0.09l-1.02 0zm5.04 2.74l0 -6.26 4.64 0 0 1.06 -3.37 0 0 1.39 3.13 0 0 1.05 -3.13 0 0 1.7 3.49 0 0 1.06 -4.76 0zm7.25 0l0 -5.2 -1.86 0 0 -1.06 4.97 0 0 1.06 -1.85 0 0 5.2 -1.26 0zm8.92 0l-1.36 0 -0.54 -1.43 -2.52 0 -0.51 1.43 -1.35 0 2.44 -6.26 1.33 0 2.51 6.26zm-2.32 -2.48l-0.86 -2.32 -0.85 2.32 1.71 0z"/>
  <path class="fil3" d="M155.21 27.46c-0.98,0.63 -2.06,1.12 -3.23,1.48 -1.18,0.36 -2.42,0.54 -3.73,0.54 -1.76,0 -3.39,-0.31 -4.9,-0.93 -1.5,-0.62 -2.79,-1.46 -3.88,-2.53 -1.09,-1.07 -1.94,-2.32 -2.57,-3.75 -0.62,-1.44 -0.93,-2.98 -0.93,-4.61l0 -0.06c0,-1.64 0.31,-3.18 0.93,-4.62 0.63,-1.45 1.49,-2.72 2.6,-3.79 1.11,-1.08 2.42,-1.93 3.92,-2.55 1.5,-0.62 3.13,-0.93 4.9,-0.93 1.76,0 3.39,0.31 4.9,0.93 1.5,0.62 2.79,1.46 3.88,2.53 1.09,1.07 1.94,2.32 2.57,3.76 0.62,1.43 0.92,2.97 0.92,4.6l0 0.07c0,1.21 -0.17,2.38 -0.52,3.49 -0.35,1.11 -0.85,2.13 -1.5,3.07l2.35 1.99 -3.2 3.56 -2.51 -2.25zm-6.9 -3.59c0.81,0 1.58,-0.15 2.33,-0.43l-3.17 -2.71 3.2 -3.59 3.1 2.81c0.24,-0.68 0.36,-1.42 0.36,-2.22l0 -0.07c0,-0.83 -0.14,-1.61 -0.42,-2.37 -0.29,-0.75 -0.69,-1.41 -1.21,-1.99 -0.52,-0.57 -1.15,-1.03 -1.88,-1.37 -0.73,-0.34 -1.53,-0.51 -2.4,-0.51 -0.87,0 -1.66,0.17 -2.37,0.51 -0.71,0.34 -1.31,0.79 -1.83,1.36 -0.51,0.56 -0.9,1.22 -1.17,1.96 -0.27,0.74 -0.41,1.52 -0.41,2.35l0 0.06c0,0.83 0.14,1.62 0.42,2.37 0.29,0.75 0.69,1.41 1.2,1.98 0.52,0.56 1.13,1.01 1.86,1.35 0.72,0.34 1.52,0.51 2.39,0.51z"/>
  <path class="fil4" d="M120.75 6.17l8.82 0c2.05,0 3.87,0.28 5.47,0.83 1.6,0.56 2.95,1.33 4.05,2.34 1.1,1 1.94,2.19 2.51,3.57 0.58,1.38 0.87,2.9 0.87,4.56l0 0.06c0,1.66 -0.29,3.18 -0.88,4.59 -0.59,1.4 -1.44,2.62 -2.55,3.64 -1.11,1.02 -2.48,1.82 -4.1,2.4 -1.62,0.58 -3.45,0.87 -5.5,0.87l-8.69 0 0 -22.86zm8.93 17.24c1.9,0 3.43,-0.5 4.59,-1.5 1.16,-1 1.73,-2.43 1.73,-4.28l0 -0.07c0,-1.83 -0.57,-3.25 -1.73,-4.26 -1.16,-1.01 -2.69,-1.52 -4.59,-1.52l-2.59 0 0 11.63 2.59 0z"/>
  <path class="fil4" d="M182.75 26.89c1.46,0 2.79,-0.23 3.98,-0.69 1.19,-0.47 2.2,-1.11 3.03,-1.93 0.83,-0.81 1.47,-1.78 1.92,-2.9 0.46,-1.11 0.68,-2.31 0.68,-3.59l0 -0.07c0,-1.28 -0.22,-2.48 -0.68,-3.6 -0.45,-1.11 -1.09,-2.08 -1.92,-2.91 -0.83,-0.83 -1.84,-1.48 -3.03,-1.96 -1.19,-0.47 -2.52,-0.71 -3.98,-0.71l-5.43 0 0 18.36 5.43 0zm-8.05 -20.78l8.05 0c1.81,0 3.48,0.29 4.99,0.88 1.51,0.58 2.82,1.39 3.91,2.43 1.1,1.04 1.94,2.26 2.54,3.67 0.59,1.4 0.89,2.92 0.89,4.55l0 0.07c0,1.64 -0.3,3.16 -0.89,4.58 -0.6,1.41 -1.44,2.64 -2.54,3.67 -1.09,1.04 -2.4,1.86 -3.91,2.46 -1.51,0.59 -3.18,0.89 -4.99,0.89l-8.05 0 0 -23.2zm26.15 0l2.62 0 0 23.2 -2.62 0 0 -23.2zm20.19 23.6c-1.84,0 -3.48,-0.31 -4.93,-0.93 -1.44,-0.62 -2.68,-1.47 -3.71,-2.55 -1.02,-1.08 -1.81,-2.35 -2.35,-3.8 -0.54,-1.44 -0.81,-3 -0.81,-4.65l0 -0.07c0,-1.59 0.28,-3.11 0.84,-4.56 0.57,-1.45 1.36,-2.72 2.37,-3.83 1.02,-1.1 2.24,-1.98 3.66,-2.63 1.43,-0.65 3.02,-0.98 4.76,-0.98 0.97,0 1.86,0.07 2.67,0.2 0.81,0.13 1.56,0.33 2.26,0.6 0.69,0.26 1.34,0.59 1.95,0.97 0.61,0.39 1.2,0.83 1.77,1.31l-1.69 1.99c-0.44,-0.4 -0.9,-0.75 -1.39,-1.07 -0.49,-0.32 -1.01,-0.6 -1.57,-0.83 -0.57,-0.24 -1.19,-0.42 -1.86,-0.55 -0.67,-0.13 -1.42,-0.2 -2.24,-0.2 -1.28,0 -2.46,0.25 -3.54,0.76 -1.09,0.51 -2.02,1.2 -2.79,2.06 -0.77,0.86 -1.38,1.87 -1.82,3.03 -0.44,1.16 -0.66,2.38 -0.66,3.66l0 0.07c0,1.39 0.21,2.67 0.64,3.85 0.43,1.17 1.05,2.18 1.84,3.05 0.8,0.86 1.76,1.53 2.89,2.02 1.12,0.48 2.39,0.73 3.81,0.73 1.32,0 2.57,-0.23 3.74,-0.68 1.17,-0.46 2.16,-1 2.95,-1.64l0 -5.77 -7.06 0 0 -2.36 9.58 0 0 9.25c-1.08,0.98 -2.41,1.81 -3.99,2.51 -1.58,0.69 -3.36,1.04 -5.32,1.04zm15.45 -23.6l2.61 0 0 23.2 -2.61 0 0 -23.2zm15.54 2.42l-7.79 0 0 -2.42 18.2 0 0 2.42 -7.79 0 0 20.78 -2.62 0 0 -20.78zm30.4 12.3l-5.27 -11.84 -5.31 11.84 10.58 0zm-6.46 -14.89l2.45 0 10.57 23.37 -2.82 0 -2.71 -6.13 -12.63 0 -2.75 6.13 -2.69 0 10.58 -23.37zm17.6 0.17l2.62 0 0 20.78 13.06 0 0 2.42 -15.68 0 0 -23.2z"/>
 </g>
</svg>
