<?xml version="1.0" encoding="UTF-8"?>
<!DOCTYPE svg PUBLIC "-//W3C//DTD SVG 1.1//EN" "http://www.w3.org/Graphics/SVG/1.1/DTD/svg11.dtd">
<!-- Creator: CorelDRAW 2018 (64 Bit) -->
<svg xmlns="http://www.w3.org/2000/svg" xml:space="preserve" width="200px" height="60px" version="1.1" style="shape-rendering:geometricPrecision; text-rendering:geometricPrecision; image-rendering:optimizeQuality; fill-rule:evenodd; clip-rule:evenodd"
viewBox="0 0 200 60"
 xmlns:xlink="http://www.w3.org/1999/xlink">
 <defs>
  <style type="text/css">
   <![CDATA[
    .fil0 {fill:none}
    .fil1 {fill:#274C77;fill-rule:nonzero}
   ]]>
  </style>
 </defs>
 <g id="Arte">
  <metadata id="CorelCorpID_0Corel-Layer"/>
  <polygon class="fil0" points="0,0 200,0 200,60 0,60 "/>
  <path class="fil1" d="M40.21 39.75c-0.98,0.63 -2.06,1.12 -3.24,1.48 -1.17,0.36 -2.41,0.54 -3.72,0.54 -1.76,0 -3.39,-0.31 -4.9,-0.93 -1.5,-0.62 -2.79,-1.46 -3.88,-2.53 -0.12,-0.11 -0.23,-0.23 -0.34,-0.35l-0.09 0.09c-1.11,1.02 -2.48,1.82 -4.1,2.4 -1.62,0.57 -3.45,0.86 -5.5,0.86l-8.69 0 0 -22.85 8.82 0c2.05,0 3.87,0.27 5.47,0.83 1.6,0.55 2.95,1.33 4.05,2.33l0.14 0.13 0.27 -0.27c1.11,-1.08 2.42,-1.93 3.92,-2.55 1.5,-0.62 3.13,-0.93 4.9,-0.93 1.76,0 3.39,0.31 4.89,0.93 1.51,0.62 2.8,1.46 3.89,2.53 1.09,1.07 1.94,2.32 2.56,3.76 0.63,1.43 0.93,2.97 0.93,4.6l0 0.06c0,1.22 -0.17,2.39 -0.52,3.5 -0.35,1.11 -0.85,2.13 -1.5,3.07l2.35 1.99 -3.2 3.56 -2.51 -2.25zm27.54 -0.57c1.46,0 2.79,-0.23 3.98,-0.69 1.19,-0.47 2.2,-1.11 3.03,-1.93 0.83,-0.81 1.47,-1.78 1.92,-2.9 0.46,-1.11 0.68,-2.31 0.68,-3.59l0 -0.07c0,-1.28 -0.22,-2.48 -0.68,-3.6 -0.45,-1.11 -1.09,-2.09 -1.92,-2.91 -0.83,-0.83 -1.84,-1.49 -3.03,-1.96 -1.19,-0.48 -2.52,-0.71 -3.98,-0.71l-5.43 0 0 18.36 5.43 0zm-8.05 -20.78l8.05 0c1.81,0 3.48,0.29 4.99,0.88 1.51,0.58 2.82,1.39 3.91,2.43 1.1,1.04 1.94,2.26 2.54,3.67 0.59,1.4 0.89,2.92 0.89,4.55l0 0.07c0,1.63 -0.3,3.16 -0.89,4.57 -0.6,1.42 -1.44,2.64 -2.54,3.68 -1.09,1.04 -2.4,1.86 -3.91,2.46 -1.51,0.59 -3.18,0.89 -4.99,0.89l-8.05 0 0 -23.2zm26.15 0l2.62 0 0 23.2 -2.62 0 0 -23.2zm20.19 23.6c-1.84,0 -3.48,-0.31 -4.93,-0.93 -1.44,-0.62 -2.68,-1.47 -3.71,-2.55 -1.02,-1.08 -1.81,-2.35 -2.35,-3.8 -0.54,-1.44 -0.81,-3 -0.81,-4.65l0 -0.07c0,-1.59 0.28,-3.11 0.84,-4.56 0.57,-1.45 1.36,-2.72 2.37,-3.83 1.02,-1.1 2.24,-1.98 3.66,-2.63 1.43,-0.66 3.02,-0.98 4.76,-0.98 0.97,0 1.86,0.07 2.67,0.2 0.81,0.13 1.56,0.33 2.26,0.6 0.69,0.26 1.34,0.59 1.95,0.97 0.61,0.39 1.2,0.83 1.77,1.31l-1.69 1.99c-0.44,-0.4 -0.9,-0.76 -1.39,-1.08 -0.49,-0.32 -1.01,-0.59 -1.57,-0.83 -0.57,-0.23 -1.19,-0.41 -1.86,-0.54 -0.67,-0.13 -1.42,-0.2 -2.24,-0.2 -1.28,0 -2.46,0.25 -3.54,0.76 -1.09,0.51 -2.02,1.19 -2.79,2.06 -0.77,0.86 -1.38,1.87 -1.82,3.03 -0.44,1.16 -0.66,2.38 -0.66,3.66l0 0.07c0,1.39 0.21,2.67 0.64,3.84 0.43,1.18 1.05,2.19 1.84,3.05 0.8,0.87 1.76,1.54 2.89,2.03 1.12,0.48 2.39,0.73 3.81,0.73 1.32,0 2.57,-0.23 3.74,-0.68 1.17,-0.46 2.16,-1 2.95,-1.65l0 -5.76 -7.06 0 0 -2.36 9.58 0 0 9.25c-1.08,0.97 -2.41,1.81 -3.99,2.51 -1.58,0.69 -3.36,1.04 -5.32,1.04zm15.45 -23.6l2.61 0 0 23.2 -2.61 0 0 -23.2zm15.54 2.42l-7.79 0 0 -2.42 18.2 0 0 2.42 -7.79 0 0 20.78 -2.62 0 0 -20.78zm30.4 12.29l-5.27 -11.83 -5.3 11.83 10.57 0zm-6.46 -14.88l2.45 0 10.57 23.37 -2.82 0 -2.71 -6.13 -12.63 0 -2.75 6.13 -2.69 0 10.58 -23.37zm17.6 0.17l2.62 0 0 20.78 13.06 0 0 2.42 -15.68 0 0 -23.2zm-157.59 12.08c0,-0.18 -0.01,-0.35 -0.01,-0.53l0 -0.07c0,-0.18 0.01,-0.37 0.01,-0.56 -0.1,-1.57 -0.67,-2.82 -1.71,-3.73 -1.16,-1.01 -2.69,-1.52 -4.59,-1.52l-2.59 0 0 11.63 2.59 0c1.9,0 3.43,-0.5 4.59,-1.5 1.04,-0.9 1.61,-2.14 1.71,-3.72zm6.48 -1.16l0.01 0.43 0 0.07c0,0.2 -0.01,0.4 -0.02,0.59 0.05,0.66 0.18,1.3 0.41,1.91 0.29,0.75 0.69,1.41 1.2,1.97 0.52,0.57 1.13,1.02 1.86,1.36 0.71,0.34 1.52,0.51 2.39,0.51 0.81,0 1.58,-0.15 2.33,-0.43l-3.17 -2.71 3.2 -3.59 3.1 2.81c0.24,-0.68 0.36,-1.42 0.36,-2.22l0 -0.07c0,-0.83 -0.14,-1.62 -0.42,-2.37 -0.29,-0.75 -0.69,-1.41 -1.21,-1.99 -0.53,-0.58 -1.15,-1.03 -1.88,-1.37 -0.73,-0.34 -1.53,-0.51 -2.4,-0.51 -0.87,0 -1.66,0.17 -2.37,0.51 -0.71,0.34 -1.32,0.79 -1.83,1.35 -0.51,0.57 -0.9,1.22 -1.17,1.96 -0.21,0.57 -0.34,1.17 -0.39,1.79z"/>
 </g>
</svg>
