<svg xmlns="http://www.w3.org/2000/svg" width="430" height="70" shape-rendering="geometricPrecision" image-rendering="optimizeQuality" fill-rule="evenodd" xmlns:v="https://vecta.io/nano"><path d="M27.35 62.22c1.1 0 2.11-.17 3.02-.52.9-.36 1.67-.84 2.3-1.46s1.11-1.36 1.46-2.21c.34-.84.51-1.75.51-2.73v-.05c0-.97-.17-1.88-.51-2.73-.35-.85-.83-1.58-1.46-2.21s-1.4-1.13-2.3-1.49c-.91-.36-1.92-.54-3.02-.54h-4.13v13.94h4.13zm-6.12-15.78h6.12c1.37 0 2.63.23 3.78.67 1.15.45 2.14 1.06 2.97 1.85s1.48 1.72 1.93 2.78c.45 1.07.68 2.22.68 3.46v.05a8.96 8.96 0 0 1-.68 3.48 8.22 8.22 0 0 1-1.93 2.79 9.02 9.02 0 0 1-2.97 1.86c-1.15.46-2.41.68-3.78.68h-6.12V46.44zm19.68 0h12.74v1.79H42.9v6.07h9.61v1.78H42.9v6.19h10.87v1.79H40.91V46.44zm23.22 9.62c.72 0 1.38-.09 1.98-.28.6-.18 1.11-.45 1.54-.79.43-.35.76-.76.98-1.23.23-.47.34-1 .34-1.59v-.05c0-1.26-.43-2.22-1.3-2.87-.86-.65-2.01-.97-3.44-.97h-4.47v7.78h4.37zm-6.36-9.62h6.6c.99 0 1.89.13 2.7.39.82.26 1.51.63 2.09 1.11a4.8 4.8 0 0 1 1.34 1.75c.31.69.46 1.47.46 2.34v.05c0 .96-.18 1.79-.55 2.51-.37.71-.87 1.31-1.5 1.8-.63.48-1.36.85-2.2 1.09s-1.73.37-2.67.37h-4.28v6.21h-1.99V46.44zm28.24 11.18l-4-8.99-4.03 8.99h8.03zm-4.9-11.3h1.86L91 64.06h-2.14l-2.07-4.65H77.2l-2.09 4.65h-2.03l8.03-17.74zm20.77 9.11c.66 0 1.26-.08 1.82-.25.55-.17 1.03-.41 1.44-.72.4-.31.72-.69.94-1.13.23-.45.34-.95.34-1.52v-.06c0-1.09-.39-1.94-1.18-2.55s-1.9-.92-3.33-.92h-5.45v7.15h5.42zm-7.41-8.99h7.58c1.09 0 2.05.16 2.9.47s1.55.74 2.1 1.3a4.3 4.3 0 0 1 1.01 1.53c.23.59.35 1.23.35 1.94v.05c0 .74-.12 1.4-.35 1.97-.23.58-.57 1.09-.99 1.52a5.61 5.61 0 0 1-1.53 1.05 6.87 6.87 0 0 1-1.91.59l5.41 7.2h-2.44l-5.11-6.84h-.05-4.98v6.84h-1.99V46.44zm22.85 1.84h-5.91v-1.84h13.81v1.84h-5.91v15.78h-1.99V48.28zm23.08 9.34l-4-8.99-4.03 8.99h8.03zm-4.91-11.3h1.86l8.03 17.74h-2.14l-2.06-4.65h-9.59l-2.09 4.65h-2.04l8.03-17.74zm13.37.12h2.01l6.42 9.62 6.42-9.62h2.01v17.62h-1.99V49.79l-6.42 9.44h-.1l-6.42-9.41v14.24h-1.93V46.44zm21.84 0h12.74v1.79h-10.75v6.07h9.61v1.78h-9.61v6.19h10.87v1.79H170.7V46.44zm16.87 0h1.86l11.1 14.12V46.44h1.93v17.62h-1.58L189.5 49.62v14.44h-1.93V46.44zm24.53 1.84h-5.91v-1.84h13.82v1.84h-5.92v15.78h-1.99V48.28zm19.89 14.25c1 0 1.93-.19 2.78-.57.84-.38 1.57-.89 2.17-1.55.61-.65 1.08-1.42 1.43-2.29.34-.87.51-1.81.51-2.82v-.05a7.81 7.81 0 0 0-.51-2.83c-.35-.88-.83-1.65-1.45-2.3-.62-.66-1.36-1.18-2.2-1.56-.85-.39-1.78-.58-2.78-.58-1.01 0-1.94.19-2.79.57-.84.37-1.57.89-2.17 1.54-.61.66-1.08 1.42-1.42 2.29-.35.88-.52 1.82-.52 2.82v.05c0 1.01.17 1.95.52 2.83a6.94 6.94 0 0 0 1.44 2.31c.62.65 1.36 1.17 2.21 1.56.84.38 1.77.58 2.78.58zm-.05 1.83c-1.35 0-2.57-.24-3.67-.73a8.62 8.62 0 0 1-2.83-1.97c-.79-.83-1.39-1.8-1.82-2.9-.43-1.09-.64-2.25-.64-3.46v-.05c0-1.21.21-2.36.65-3.47s1.05-2.08 1.84-2.91 1.73-1.49 2.84-1.98c1.11-.5 2.33-.75 3.68-.75 1.34 0 2.56.25 3.66.73 1.1.49 2.04 1.15 2.83 1.98s1.4 1.79 1.82 2.89a9.41 9.41 0 0 1 .65 3.46c.01.02.01.04 0 .05a9.36 9.36 0 0 1-.66 3.48c-.43 1.1-1.05 2.07-1.84 2.9-.78.83-1.73 1.5-2.84 1.99-1.11.5-2.33.74-3.67.74zm26.88-2.14c1.1 0 2.11-.17 3.02-.52.9-.36 1.67-.84 2.3-1.46s1.11-1.36 1.46-2.21c.34-.84.51-1.75.51-2.73v-.05c0-.97-.17-1.88-.51-2.73-.35-.85-.83-1.58-1.46-2.21s-1.4-1.13-2.3-1.49c-.91-.36-1.92-.54-3.02-.54h-4.13v13.94h4.13zm-6.12-15.78h6.12c1.37 0 2.64.23 3.78.67 1.15.45 2.14 1.06 2.97 1.85s1.48 1.72 1.93 2.78c.45 1.07.68 2.22.68 3.46v.05a8.96 8.96 0 0 1-.68 3.48 8.22 8.22 0 0 1-1.93 2.79 9.02 9.02 0 0 1-2.97 1.86c-1.14.46-2.41.68-3.78.68h-6.12V46.44zm19.68 0h12.74v1.79h-10.75v6.07h9.61v1.78h-9.61v6.19h10.87v1.79h-12.86V46.44zm32.65 16.09c.78 0 1.52-.12 2.21-.36.69-.23 1.3-.56 1.84-.98l-3.27-2.79 1.33-1.49 3.25 2.95c.48-.62.86-1.32 1.13-2.09s.4-1.59.4-2.47v-.05a7.81 7.81 0 0 0-.51-2.83c-.35-.88-.83-1.65-1.45-2.3-.62-.66-1.36-1.18-2.2-1.56-.85-.39-1.78-.58-2.78-.58-1.01 0-1.94.19-2.79.57-.84.37-1.57.89-2.17 1.54-.61.66-1.08 1.42-1.42 2.29-.35.88-.52 1.82-.52 2.82v.05c0 1.01.17 1.95.52 2.83a6.94 6.94 0 0 0 1.44 2.31c.62.65 1.36 1.17 2.2 1.56.85.38 1.78.58 2.79.58zm5.51-.05a9.63 9.63 0 0 1-2.52 1.38c-.92.34-1.94.5-3.04.5-1.35 0-2.57-.24-3.67-.73a8.62 8.62 0 0 1-2.83-1.97c-.79-.83-1.39-1.8-1.82-2.9-.43-1.09-.64-2.25-.64-3.46v-.05c0-1.21.21-2.36.65-3.47s1.05-2.08 1.84-2.91 1.73-1.49 2.84-1.98c1.11-.5 2.33-.75 3.68-.75 1.34 0 2.56.25 3.66.73 1.1.49 2.04 1.15 2.83 1.98s1.4 1.79 1.82 2.89a9.41 9.41 0 0 1 .65 3.46c.01.02.01.04 0 .05 0 1.11-.18 2.17-.55 3.19a8.64 8.64 0 0 1-1.57 2.73l2.34 1.94-1.36 1.48-2.31-2.11zm14.7 1.86c-1.09 0-2.09-.16-2.99-.49-.89-.33-1.67-.82-2.31-1.46-.65-.65-1.15-1.45-1.5-2.41-.35-.95-.53-2.05-.53-3.29V46.44h1.99v10.12c0 1.91.47 3.38 1.42 4.41.95 1.02 2.27 1.53 3.97 1.53 1.62 0 2.92-.48 3.87-1.46.96-.97 1.44-2.42 1.44-4.35V46.44h1.98v10.1c0 1.29-.17 2.42-.52 3.39-.36.98-.85 1.79-1.5 2.45-.65.65-1.42 1.14-2.32 1.47-.89.33-1.9.49-3 .49zm14.82-23.11l2.01.94-2.84 2.69h-1.56l2.39-3.63zm-2.59 5.21h1.99v17.62h-1.99V46.44zm7.15 0h2.01l6.42 9.62 6.42-9.62h2.01v17.62h-1.99V49.79l-6.42 9.44h-.1l-6.42-9.41v14.24h-1.93V46.44zm22.02 0h1.99v17.62h-1.99V46.44zm15.2 17.92c-1.28 0-2.45-.23-3.52-.7-1.08-.47-2.01-1.11-2.8-1.93-.79-.81-1.4-1.77-1.85-2.88-.44-1.11-.66-2.29-.66-3.55v-.05c0-1.24.22-2.41.66-3.52.45-1.11 1.06-2.08 1.85-2.91s1.73-1.48 2.82-1.96 2.28-.72 3.57-.72c.81 0 1.54.07 2.18.2.65.14 1.25.33 1.8.57a8 8 0 0 1 1.54.88c.47.34.92.73 1.36 1.15l-1.36 1.46a11.09 11.09 0 0 0-2.43-1.74c-.87-.45-1.9-.68-3.11-.68-.97 0-1.87.18-2.71.55-.83.37-1.55.88-2.16 1.54-.61.65-1.09 1.42-1.43 2.3-.35.88-.52 1.83-.52 2.83v.05c0 1.03.17 1.98.52 2.86.34.88.82 1.65 1.43 2.3a6.69 6.69 0 0 0 2.16 1.55c.84.38 1.74.57 2.71.57 1.21 0 2.25-.23 3.12-.67s1.73-1.07 2.57-1.88l1.31 1.29c-.46.47-.93.89-1.43 1.27-.49.38-1.02.7-1.59.97s-1.19.48-1.84.63c-.66.15-1.39.22-2.19.22zm21.95-6.74l-4.01-8.99-4.02 8.99h8.03zm-4.91-11.3h1.86l8.03 17.74h-2.14l-2.06-4.65h-9.59l-2.09 4.65h-2.04l8.03-17.74z" fill="#a7c4d2" fill-rule="nonzero"/><path d="M324.68 5.71h19.9c3.55 0 6.46 2.91 6.46 6.46h0c0 3.55-2.91 6.46-6.46 6.46h-19.9c-3.55 0-6.46-2.91-6.46-6.46h0c0-3.55 2.91-6.46 6.46-6.46z" fill="#fff"/><path d="M323.39 9.04h2.5c.5 0 .87.02 1.11.06.25.04.46.13.66.26.19.13.35.3.48.52s.19.46.19.73c0 .29-.08.56-.24.81-.15.24-.37.42-.64.54.38.12.67.31.88.57.2.27.31.59.31.95 0 .29-.07.56-.2.83-.14.27-.32.49-.55.65-.22.16-.51.26-.84.3-.21.02-.72.03-1.53.04h-2.13V9.04zm1.27 1.04v1.44h.82l.92-.02c.22-.03.39-.1.51-.22.12-.13.19-.29.19-.49a.72.72 0 0 0-.16-.47c-.11-.12-.27-.2-.48-.22-.12-.01-.48-.02-1.08-.02h-.72zm0 2.48v1.68h1.17l.87-.04c.18-.03.34-.11.45-.25.12-.13.18-.31.18-.53 0-.19-.04-.35-.13-.48s-.23-.23-.4-.29-.55-.09-1.12-.09h-1.02zm5.04 2.74V9.04h4.64v1.06h-3.37v1.39h3.13v1.05h-3.13v1.7h3.49v1.06h-4.76zm7.25 0v-5.2h-1.86V9.04h4.97v1.06h-1.85v5.2h-1.26zm8.92 0h-1.36l-.54-1.43h-2.52l-.51 1.43h-1.35l2.44-6.26h1.33l2.51 6.26zm-2.32-2.48l-.86-2.32-.85 2.32h1.71zM155.21 27.46c-.98.63-2.06 1.12-3.23 1.48-1.18.36-2.42.54-3.73.54-1.76 0-3.39-.31-4.9-.93-1.5-.62-2.79-1.46-3.88-2.53s-1.94-2.32-2.57-3.75c-.62-1.44-.93-2.98-.93-4.61v-.06c0-1.64.31-3.18.93-4.62.63-1.45 1.49-2.72 2.6-3.79 1.11-1.08 2.42-1.93 3.92-2.55s3.13-.93 4.9-.93c1.76 0 3.39.31 4.9.93 1.5.62 2.79 1.46 3.88 2.53s1.94 2.32 2.57 3.76c.62 1.43.92 2.97.92 4.6v.07c0 1.21-.17 2.38-.52 3.49a11.37 11.37 0 0 1-1.5 3.07l2.35 1.99-3.2 3.56-2.51-2.25zm-6.9-3.59a6.59 6.59 0 0 0 2.33-.43l-3.17-2.71 3.2-3.59 3.1 2.81c.24-.68.36-1.42.36-2.22v-.07a6.76 6.76 0 0 0-.42-2.37 6.4 6.4 0 0 0-1.21-1.99c-.52-.57-1.15-1.03-1.88-1.37s-1.53-.51-2.4-.51-1.66.17-2.37.51a5.87 5.87 0 0 0-1.83 1.36c-.51.56-.9 1.22-1.17 1.96a6.79 6.79 0 0 0-.41 2.35v.06a6.72 6.72 0 0 0 .42 2.37 6.4 6.4 0 0 0 1.2 1.98c.52.56 1.13 1.01 1.86 1.35.72.34 1.52.51 2.39.51z" fill="#a7c4d2" fill-rule="nonzero"/><path d="M120.75 6.17h8.82c2.05 0 3.87.28 5.47.83 1.6.56 2.95 1.33 4.05 2.34 1.1 1 1.94 2.19 2.51 3.57.58 1.38.87 2.9.87 4.56v.06c0 1.66-.29 3.18-.88 4.59-.59 1.4-1.44 2.62-2.55 3.64s-2.48 1.82-4.1 2.4-3.45.87-5.5.87h-8.69V6.17zm8.93 17.24c1.9 0 3.43-.5 4.59-1.5s1.73-2.43 1.73-4.28v-.07c0-1.83-.57-3.25-1.73-4.26s-2.69-1.52-4.59-1.52h-2.59v11.63h2.59zm53.07 3.48c1.46 0 2.79-.23 3.98-.69 1.19-.47 2.2-1.11 3.03-1.93.83-.81 1.47-1.78 1.92-2.9.46-1.11.68-2.31.68-3.59v-.07c0-1.28-.22-2.48-.68-3.6-.45-1.11-1.09-2.08-1.92-2.91s-1.84-1.48-3.03-1.96c-1.19-.47-2.52-.71-3.98-.71h-5.43v18.36h5.43zM174.7 6.11h8.05c1.81 0 3.48.29 4.99.88 1.51.58 2.82 1.39 3.91 2.43 1.1 1.04 1.94 2.26 2.54 3.67.59 1.4.89 2.92.89 4.55v.07c0 1.64-.3 3.16-.89 4.58-.6 1.41-1.44 2.64-2.54 3.67-1.09 1.04-2.4 1.86-3.91 2.46-1.51.59-3.18.89-4.99.89h-8.05V6.11zm26.15 0h2.62v23.2h-2.62V6.11zm20.19 23.6c-1.84 0-3.48-.31-4.93-.93-1.44-.62-2.68-1.47-3.71-2.55a11.15 11.15 0 0 1-2.35-3.8c-.54-1.44-.81-3-.81-4.65v-.07c0-1.59.28-3.11.84-4.56.57-1.45 1.36-2.72 2.37-3.83 1.02-1.1 2.24-1.98 3.66-2.63 1.43-.65 3.02-.98 4.76-.98.97 0 1.86.07 2.67.2a11.17 11.17 0 0 1 2.26.6c.69.26 1.34.59 1.95.97a16.83 16.83 0 0 1 1.77 1.31l-1.69 1.99a10.94 10.94 0 0 0-1.39-1.07c-.49-.32-1.01-.6-1.57-.83-.57-.24-1.19-.42-1.86-.55s-1.42-.2-2.24-.2c-1.28 0-2.46.25-3.54.76-1.09.51-2.02 1.2-2.79 2.06a9.6 9.6 0 0 0-1.82 3.03c-.44 1.16-.66 2.38-.66 3.66v.07c0 1.39.21 2.67.64 3.85.43 1.17 1.05 2.18 1.84 3.05.8.86 1.76 1.53 2.89 2.02 1.12.48 2.39.73 3.81.73 1.32 0 2.57-.23 3.74-.68 1.17-.46 2.16-1 2.95-1.64v-5.77h-7.06v-2.36h9.58v9.25c-1.08.98-2.41 1.81-3.99 2.51-1.58.69-3.36 1.04-5.32 1.04zm15.45-23.6h2.61v23.2h-2.61V6.11zm15.54 2.42h-7.79V6.11h18.2v2.42h-7.79v20.78h-2.62V8.53zm30.4 12.3l-5.27-11.84-5.31 11.84h10.58zm-6.46-14.89h2.45l10.57 23.37h-2.82l-2.71-6.13h-12.63l-2.75 6.13h-2.69l10.58-23.37zm17.6.17h2.62v20.78h13.06v2.42h-15.68V6.11z" fill-rule="nonzero" fill="#fff"/></svg>