<svg xmlns="http://www.w3.org/2000/svg" width="730" height="60" shape-rendering="geometricPrecision" image-rendering="optimizeQuality" fill-rule="evenodd" xmlns:v="https://vecta.io/nano"><g fill-rule="nonzero"><path d="M46.49 39.78c-.98.63-2.05 1.12-3.23 1.48-1.17.36-2.42.54-3.72.54-1.76 0-3.4-.31-4.9-.93s-2.8-1.46-3.89-2.53a11.9 11.9 0 0 1-2.56-3.75c-.62-1.44-.93-2.98-.93-4.61v-.07c0-1.63.31-3.17.93-4.62.62-1.44 1.49-2.71 2.6-3.78 1.11-1.08 2.41-1.93 3.92-2.55 1.5-.62 3.13-.93 4.89-.93 1.77 0 3.4.31 4.9.93s2.8 1.46 3.89 2.53a11.67 11.67 0 0 1 2.56 3.76c.62 1.43.93 2.97.93 4.6v.06c0 1.22-.17 2.39-.52 3.5a11.37 11.37 0 0 1-1.5 3.07l2.35 1.99-3.2 3.56-2.52-2.25zm-6.9-3.59a6.55 6.55 0 0 0 2.33-.43l-3.17-2.71 3.21-3.59 3.1 2.81c.24-.68.36-1.42.36-2.22v-.07a6.51 6.51 0 0 0-.43-2.37c-.28-.75-.68-1.41-1.21-1.99-.52-.58-1.14-1.03-1.87-1.37s-1.53-.51-2.4-.51-1.66.17-2.37.51-1.32.79-1.83 1.36c-.51.56-.9 1.21-1.18 1.95-.27.74-.4 1.53-.4 2.35v.07a6.72 6.72 0 0 0 .42 2.37c.29.75.69 1.41 1.2 1.97a5.84 5.84 0 0 0 1.85 1.36c.72.34 1.52.51 2.39.51z" fill="#a7c4d2"/><path d="M12.04 18.49h8.82c2.04 0 3.87.27 5.47.83 1.6.55 2.95 1.33 4.05 2.33 1.09 1 1.93 2.2 2.51 3.58s.86 2.9.86 4.56v.06c0 1.65-.29 3.18-.88 4.59-.58 1.4-1.43 2.62-2.54 3.64s-2.48 1.82-4.1 2.4-3.46.86-5.5.86h-8.69V18.49zm8.93 17.24c1.89 0 3.42-.5 4.58-1.5 1.16-1.01 1.74-2.43 1.74-4.28v-.07c0-1.83-.58-3.25-1.74-4.26s-2.69-1.52-4.58-1.52h-2.6v11.63h2.6zm53.07 3.48c1.46 0 2.78-.23 3.98-.69 1.19-.47 2.2-1.11 3.03-1.93.83-.81 1.47-1.78 1.92-2.9.45-1.11.68-2.31.68-3.59v-.07c0-1.28-.23-2.48-.68-3.6-.45-1.11-1.09-2.09-1.92-2.91-.83-.83-1.84-1.49-3.03-1.96-1.2-.47-2.52-.71-3.98-.71H68.6v18.36h5.44zm-8.06-20.78h8.06c1.81 0 3.47.29 4.99.88 1.51.58 2.81 1.39 3.91 2.43a10.77 10.77 0 0 1 2.53 3.67c.6 1.4.9 2.92.9 4.55v.07c0 1.63-.3 3.16-.9 4.57-.59 1.42-1.44 2.64-2.53 3.68-1.1 1.04-2.4 1.86-3.91 2.46-1.52.59-3.18.89-4.99.89h-8.06v-23.2zm26.16 0h2.62v23.2h-2.62v-23.2zm20.18 23.6c-1.83 0-3.47-.31-4.92-.93s-2.68-1.47-3.71-2.55-1.81-2.35-2.35-3.8c-.55-1.44-.82-3-.82-4.65v-.07c0-1.59.28-3.11.85-4.56.56-1.45 1.35-2.72 2.37-3.83 1.02-1.1 2.24-1.98 3.66-2.63 1.43-.65 3.01-.98 4.76-.98.97 0 1.86.07 2.67.2a11.25 11.25 0 0 1 2.25.6c.7.26 1.35.59 1.96.97.6.39 1.2.83 1.77 1.31l-1.69 1.99a11.79 11.79 0 0 0-1.39-1.08c-.49-.32-1.01-.59-1.58-.83-.56-.23-1.18-.41-1.85-.54-.68-.13-1.42-.2-2.24-.2-1.28 0-2.47.25-3.55.76s-2.01 1.2-2.78 2.06c-.78.86-1.38 1.87-1.83 3.03-.44 1.16-.66 2.38-.66 3.66v.07c0 1.39.22 2.67.65 3.85a8.91 8.91 0 0 0 1.84 3.04c.79.87 1.75 1.54 2.88 2.03 1.13.48 2.4.73 3.81.73 1.33 0 2.58-.23 3.75-.68 1.17-.46 2.15-1 2.95-1.65v-5.76h-7.06v-2.36h9.58v9.25c-1.08.97-2.41 1.81-3.99 2.51-1.59.69-3.36 1.04-5.33 1.04zm15.45-23.6h2.62v23.2h-2.62v-23.2zm15.55 2.42h-7.79v-2.42h18.2v2.42h-7.79v20.78h-2.62V20.85zm30.4 12.3l-5.28-11.84-5.3 11.84h10.58zm-6.47-14.89h2.45l10.58 23.37h-2.82l-2.72-6.13h-12.63l-2.75 6.13h-2.68l10.57-23.37zm17.6.17h2.62v20.78h13.06v2.42h-15.68v-23.2z" fill="#fff"/><path d="M336.4 37.47c1.11 0 2.12-.17 3.02-.53.91-.35 1.68-.83 2.31-1.45a6.63 6.63 0 0 0 1.45-2.21 7.06 7.06 0 0 0 .52-2.73v-.05c0-.97-.17-1.88-.52-2.73a6.63 6.63 0 0 0-1.45-2.21c-.63-.63-1.4-1.13-2.31-1.49-.9-.36-1.91-.54-3.02-.54h-4.13v13.94h4.13zm-6.11-15.78h6.11c1.38 0 2.64.23 3.79.67s2.14 1.06 2.97 1.85a8.25 8.25 0 0 1 1.92 2.78c.46 1.07.68 2.22.68 3.46v.05c0 1.24-.22 2.4-.68 3.47-.45 1.08-1.09 2.01-1.92 2.8a9.02 9.02 0 0 1-2.97 1.86c-1.15.45-2.41.68-3.79.68h-6.11V21.69zm19.68 0h12.73v1.79h-10.74v6.07h9.61v1.78h-9.61v6.19h10.87v1.79h-12.86V21.69zm23.22 9.62c.72 0 1.38-.09 1.97-.28.6-.18 1.12-.45 1.54-.8.43-.34.76-.75.99-1.22s.34-1 .34-1.59v-.05c0-1.26-.43-2.22-1.3-2.87-.86-.65-2.01-.97-3.44-.97h-4.47v7.78h4.37zm-6.36-9.62h6.59c.99 0 1.9.13 2.71.39s1.51.63 2.09 1.11a4.77 4.77 0 0 1 1.33 1.75c.31.69.47 1.47.47 2.34v.05c0 .96-.19 1.79-.56 2.5a5.11 5.11 0 0 1-1.49 1.8c-.63.49-1.37.86-2.21 1.1-.83.24-1.72.36-2.66.36h-4.28v6.22h-1.99V21.69zm28.24 11.18l-4-8.99-4.03 8.99h8.03zm-4.91-11.3h1.86l8.03 17.74h-2.14l-2.06-4.66h-9.59l-2.09 4.66h-2.04l8.03-17.74zm20.78 9.11c.66 0 1.26-.09 1.81-.25.56-.17 1.04-.41 1.44-.72a3.32 3.32 0 0 0 .95-1.13c.23-.45.34-.96.34-1.53V27c0-1.09-.39-1.94-1.19-2.55-.79-.61-1.9-.92-3.33-.92h-5.45v7.15h5.43zm-7.41-8.99h7.57c1.09 0 2.06.16 2.91.47.84.31 1.54.74 2.1 1.29.43.44.77.95 1.01 1.54.23.59.35 1.23.35 1.94v.05c0 .74-.12 1.39-.35 1.97-.24.58-.57 1.09-1 1.51-.43.43-.93.78-1.52 1.06s-1.23.47-1.91.59l5.41 7.2h-2.44l-5.11-6.85h-.05-4.99v6.85h-1.98V21.69zm22.85 1.84h-5.92v-1.84h13.82v1.84h-5.91v15.78h-1.99V23.53zm23.08 9.34l-4.01-8.99-4.02 8.99h8.03zm-4.91-11.3h1.86l8.03 17.74h-2.14l-2.06-4.66h-9.59l-2.09 4.66h-2.04l8.03-17.74zm13.36.12h2.02l6.41 9.62 6.42-9.62h2.02v17.62h-1.99V25.04l-6.42 9.44h-.1l-6.42-9.41v14.24h-1.94V21.69zm21.85 0h12.73v1.79h-10.74v6.07h9.61v1.78h-9.61v6.19h10.87v1.79h-12.86V21.69zm16.86 0h1.86l11.1 14.12V21.69h1.94v17.62h-1.59l-11.37-14.45v14.45h-1.94V21.69zm24.54 1.84h-5.92v-1.84h13.82v1.84h-5.91v15.78h-1.99V23.53zm19.88 14.25c1.01 0 1.94-.19 2.78-.57.85-.38 1.58-.89 2.18-1.55.6-.65 1.08-1.42 1.42-2.29.35-.87.52-1.81.52-2.82v-.05c0-1.01-.17-1.95-.52-2.83-.34-.88-.82-1.65-1.45-2.3-.62-.66-1.35-1.18-2.2-1.56-.85-.39-1.77-.58-2.78-.58-1 0-1.93.19-2.78.56-.85.38-1.57.9-2.18 1.55a7.36 7.36 0 0 0-1.42 2.29c-.34.87-.51 1.81-.51 2.82v.05c0 1.01.17 1.95.51 2.83s.83 1.65 1.45 2.31a7.09 7.09 0 0 0 2.2 1.56c.85.38 1.77.58 2.78.58zm-.05 1.83c-1.34 0-2.56-.24-3.66-.73a8.62 8.62 0 0 1-2.83-1.97c-.79-.83-1.4-1.8-1.83-2.9a9.61 9.61 0 0 1-.64-3.46v-.05c0-1.21.22-2.36.66-3.47.43-1.11 1.04-2.08 1.83-2.91s1.74-1.49 2.85-1.99c1.1-.49 2.33-.74 3.67-.74s2.57.24 3.66.73c1.1.49 2.05 1.15 2.83 1.98.79.83 1.4 1.79 1.83 2.89s.64 2.25.64 3.46c.02.02.02.04 0 .05 0 1.21-.22 2.37-.65 3.47-.44 1.11-1.05 2.08-1.84 2.91s-1.74 1.5-2.84 1.99c-1.11.5-2.34.74-3.68.74zm26.88-2.14c1.11 0 2.12-.17 3.02-.53.91-.35 1.68-.83 2.31-1.45a6.63 6.63 0 0 0 1.45-2.21 7.06 7.06 0 0 0 .52-2.73v-.05c0-.97-.17-1.88-.52-2.73a6.63 6.63 0 0 0-1.45-2.21c-.63-.63-1.4-1.13-2.31-1.49-.9-.36-1.91-.54-3.02-.54h-4.13v13.94h4.13zm-6.11-15.78h6.11c1.38 0 2.64.23 3.79.67s2.14 1.06 2.97 1.85a8.25 8.25 0 0 1 1.92 2.78c.46 1.07.68 2.22.68 3.46v.05c0 1.24-.22 2.4-.68 3.47-.45 1.08-1.09 2.01-1.92 2.8a9.02 9.02 0 0 1-2.97 1.86c-1.15.45-2.41.68-3.79.68h-6.11V21.69zm19.68 0h12.73v1.79h-10.74v6.07h9.61v1.78h-9.61v6.19h10.87v1.79h-12.86V21.69zm32.64 16.09a6.71 6.71 0 0 0 2.22-.36 6.07 6.07 0 0 0 1.83-.98l-3.27-2.79 1.34-1.49 3.24 2.95c.49-.62.87-1.32 1.13-2.09.27-.77.41-1.6.41-2.47v-.05c0-1.01-.17-1.95-.52-2.83-.34-.88-.82-1.65-1.45-2.3-.62-.66-1.35-1.18-2.2-1.56-.85-.39-1.77-.58-2.78-.58s-1.93.19-2.78.56c-.85.38-1.57.9-2.18 1.55a7.36 7.36 0 0 0-1.42 2.29c-.34.87-.52 1.81-.52 2.82v.05c0 1.01.18 1.95.52 2.83s.83 1.65 1.45 2.31a7.09 7.09 0 0 0 2.2 1.56c.85.38 1.77.58 2.78.58zm5.51-.05c-.75.58-1.59 1.04-2.51 1.38-.93.34-1.94.5-3.05.5-1.34 0-2.56-.24-3.66-.73a8.62 8.62 0 0 1-2.83-1.97c-.79-.83-1.4-1.8-1.83-2.9s-.64-2.25-.64-3.46v-.05c0-1.21.22-2.36.66-3.47.43-1.11 1.04-2.08 1.83-2.91s1.74-1.49 2.85-1.99c1.1-.49 2.33-.74 3.67-.74s2.56.24 3.66.73 2.05 1.15 2.83 1.98c.79.83 1.4 1.79 1.83 2.89s.64 2.25.64 3.46c.02.02.02.04 0 .05a9.5 9.5 0 0 1-.54 3.19c-.36 1.01-.89 1.92-1.57 2.73l2.34 1.93-1.36 1.49-2.32-2.11zm14.7 1.86c-1.09 0-2.08-.17-2.98-.49-.9-.33-1.67-.82-2.32-1.46-.64-.65-1.14-1.45-1.49-2.41-.36-.95-.53-2.05-.53-3.29V21.69h1.99v10.12c0 1.91.47 3.38 1.42 4.4.95 1.03 2.27 1.54 3.96 1.54 1.63 0 2.92-.49 3.88-1.46.95-.97 1.43-2.42 1.43-4.35V21.69h1.99v10.1c0 1.29-.18 2.42-.53 3.39-.35.98-.85 1.79-1.5 2.44-.64.66-1.41 1.15-2.31 1.48-.9.32-1.9.49-3.01.49zm14.83-23.11l2.01.93-2.84 2.7h-1.56l2.39-3.63zm-2.6 5.21h1.99v17.62h-1.99V21.69zm7.15 0h2.01l6.42 9.62 6.42-9.62h2.01v17.62h-1.98V25.04l-6.42 9.44h-.1l-6.42-9.41v14.24h-1.94V21.69zm22.02 0h1.99v17.62h-1.99V21.69zm15.2 17.92c-1.27 0-2.44-.23-3.52-.7-1.07-.47-2-1.11-2.79-1.93-.79-.81-1.41-1.77-1.85-2.88-.45-1.11-.67-2.29-.67-3.55v-.05c0-1.24.22-2.41.67-3.52.44-1.11 1.06-2.08 1.85-2.91s1.73-1.48 2.82-1.96 2.28-.72 3.57-.72c.81 0 1.53.07 2.18.2.64.14 1.24.33 1.8.57.55.24 1.06.54 1.53.88a12.08 12.08 0 0 1 1.36 1.14l-1.36 1.46c-.75-.7-1.56-1.28-2.43-1.73-.86-.46-1.9-.68-3.1-.68-.98 0-1.88.18-2.71.55s-1.55.88-2.16 1.54c-.62.65-1.1 1.42-1.44 2.3s-.52 1.82-.52 2.83v.05c0 1.02.18 1.98.52 2.86s.82 1.65 1.44 2.3a6.69 6.69 0 0 0 2.16 1.55 6.42 6.42 0 0 0 2.71.57c1.2 0 2.24-.23 3.12-.67.87-.45 1.73-1.07 2.56-1.88l1.31 1.29c-.45.47-.92.89-1.42 1.27-.49.38-1.03.7-1.6.97-.57.26-1.18.48-1.84.63-.65.15-1.38.22-2.19.22zm21.95-6.74l-4-8.99-4.03 8.99h8.03zm-4.91-11.3h1.87l8.03 17.74h-2.14l-2.07-4.66h-9.59l-2.09 4.66h-2.03l8.02-17.74z" fill="#a7c4d2"/></g><path d="M217.46 18.15h19.9c3.55 0 6.45 2.91 6.45 6.46h0c0 3.55-2.9 6.46-6.45 6.46h-19.9c-3.55 0-6.46-2.91-6.46-6.46h0c0-3.55 2.91-6.46 6.46-6.46z" fill="#fff"/><path d="M216.16 21.48h2.51c.5 0 .87.02 1.11.06a1.62 1.62 0 0 1 .65.26c.2.13.36.3.48.52.13.22.2.46.2.73 0 .29-.08.56-.24.81a1.56 1.56 0 0 1-.64.55c.38.11.67.3.88.57.2.26.3.58.3.94 0 .29-.06.57-.2.83-.13.27-.31.49-.54.65s-.51.26-.85.3c-.21.02-.72.04-1.52.04h-2.14v-6.26zm1.27 1.04v1.44h.83l.92-.02c.21-.02.38-.1.51-.22.12-.13.18-.29.18-.49 0-.19-.05-.35-.16-.47-.1-.12-.26-.19-.47-.22a18.87 18.87 0 0 0-1.08-.02h-.73zm0 2.48v1.68h1.17l.87-.04c.19-.03.34-.11.46-.25.12-.13.18-.31.18-.53 0-.19-.05-.35-.14-.48s-.22-.23-.39-.29-.55-.09-1.13-.09h-1.02zm5.05 2.74v-6.26h4.64v1.06h-3.37v1.39h3.13v1.06h-3.13v1.69h3.49v1.06h-4.76zm7.24 0v-5.2h-1.85v-1.06h4.97v1.06h-1.85v5.2h-1.27zm8.93 0h-1.37l-.54-1.42h-2.51l-.52 1.42h-1.34l2.43-6.26h1.34l2.51 6.26zm-2.32-2.48l-.87-2.32-.84 2.32h1.71z" fill="#a7c4d2" fill-rule="nonzero"/></svg>