<?xml version="1.0" encoding="UTF-8"?>
<!DOCTYPE svg PUBLIC "-//W3C//DTD SVG 1.1//EN" "http://www.w3.org/Graphics/SVG/1.1/DTD/svg11.dtd">
<svg xmlns="http://www.w3.org/2000/svg" xml:space="preserve" width="200px" height="40px" version="1.1" style="shape-rendering:geometricPrecision; text-rendering:geometricPrecision; image-rendering:optimizeQuality; fill-rule:evenodd; clip-rule:evenodd"
viewBox="0 0 200 40"
 xmlns:xlink="http://www.w3.org/1999/xlink">
 <defs>
  <style type="text/css">
   <![CDATA[.fil0 {fill:none}.fil1 {fill:#d4d4d4;fill-rule:nonzero}]]>
  </style>
 </defs>
 <g>
  <polygon class="fil0" points="0,0 200,0 200,40 0,40 "/>
  <path class="fil1" d="M36.87 30.29c-1.03,0.67 -2.17,1.19 -3.41,1.57 -1.24,0.38 -2.55,0.57 -3.93,0.57 -1.86,0 -3.58,-0.33 -5.17,-0.98 -1.59,-0.66 -2.95,-1.55 -4.1,-2.68 -0.13,-0.12 -0.24,-0.24 -0.36,-0.36l-0.1 0.09c-1.17,1.08 -2.61,1.92 -4.32,2.53 -1.72,0.61 -3.65,0.92 -5.81,0.92l-9.17 0 0 -24.14 9.31 0c2.16,0 4.08,0.3 5.77,0.88 1.69,0.59 3.12,1.41 4.28,2.47l0.14 0.13 0.29 -0.29c1.17,-1.14 2.55,-2.03 4.14,-2.69 1.58,-0.65 3.31,-0.98 5.17,-0.98 1.86,0 3.59,0.33 5.17,0.98 1.59,0.66 2.95,1.55 4.1,2.67 1.15,1.13 2.05,2.45 2.71,3.97 0.65,1.52 0.98,3.14 0.98,4.86l0 0.07c0,1.29 -0.18,2.52 -0.55,3.69 -0.37,1.17 -0.9,2.25 -1.59,3.24l2.49 2.1 -3.38 3.76 -2.66 -2.38zm29.08 -0.6c1.54,0 2.94,-0.24 4.2,-0.73 1.26,-0.49 2.33,-1.17 3.21,-2.03 0.87,-0.86 1.55,-1.88 2.02,-3.06 0.48,-1.18 0.72,-2.45 0.72,-3.8l0 -0.07c0,-1.35 -0.24,-2.62 -0.72,-3.8 -0.47,-1.18 -1.15,-2.2 -2.02,-3.08 -0.88,-0.87 -1.95,-1.56 -3.21,-2.06 -1.26,-0.5 -2.66,-0.75 -4.2,-0.75l-5.74 0 0 19.38 5.74 0zm-8.5 -21.94l8.5 0c1.92,0 3.67,0.31 5.27,0.93 1.6,0.62 2.98,1.47 4.13,2.57 1.15,1.1 2.05,2.39 2.68,3.87 0.63,1.48 0.94,3.08 0.94,4.81l0 0.07c0,1.73 -0.31,3.34 -0.94,4.83 -0.63,1.49 -1.53,2.79 -2.68,3.88 -1.15,1.1 -2.53,1.96 -4.13,2.59 -1.6,0.63 -3.35,0.95 -5.27,0.95l-8.5 0 0 -24.5zm27.61 0l2.77 0 0 24.5 -2.77 0 0 -24.5zm21.31 24.92c-1.93,0 -3.66,-0.33 -5.19,-0.98 -1.53,-0.65 -2.84,-1.55 -3.92,-2.69 -1.09,-1.15 -1.91,-2.48 -2.49,-4.01 -0.57,-1.53 -0.85,-3.17 -0.85,-4.92l0 -0.07c0,-1.68 0.29,-3.28 0.89,-4.81 0.59,-1.53 1.43,-2.88 2.5,-4.05 1.07,-1.16 2.36,-2.09 3.87,-2.78 1.5,-0.69 3.18,-1.03 5.02,-1.03 1.03,0 1.97,0.07 2.82,0.21 0.85,0.14 1.64,0.35 2.38,0.63 0.73,0.28 1.42,0.62 2.06,1.03 0.64,0.41 1.27,0.87 1.87,1.39l-1.78 2.1c-0.47,-0.43 -0.96,-0.8 -1.47,-1.14 -0.51,-0.34 -1.07,-0.63 -1.66,-0.88 -0.6,-0.24 -1.25,-0.43 -1.96,-0.58 -0.72,-0.14 -1.5,-0.21 -2.36,-0.21 -1.36,0 -2.61,0.27 -3.75,0.81 -1.14,0.54 -2.12,1.26 -2.94,2.17 -0.82,0.91 -1.46,1.98 -1.92,3.2 -0.47,1.23 -0.7,2.52 -0.7,3.87l0 0.07c0,1.47 0.22,2.82 0.68,4.06 0.45,1.24 1.1,2.31 1.94,3.22 0.84,0.91 1.85,1.62 3.05,2.13 1.18,0.52 2.53,0.77 4.02,0.77 1.4,0 2.72,-0.24 3.96,-0.71 1.23,-0.48 2.27,-1.06 3.11,-1.74l0 -6.08 -7.45 0 0 -2.49 10.11 0 0 9.76c-1.14,1.03 -2.55,1.91 -4.22,2.65 -1.67,0.73 -3.54,1.1 -5.62,1.1zm16.31 -24.92l2.77 0 0 24.5 -2.77 0 0 -24.5zm16.42 2.56l-8.23 0 0 -2.56 19.22 0 0 2.56 -8.23 0 0 21.94 -2.76 0 0 -21.94zm32.09 12.98l-5.57 -12.49 -5.59 12.49 11.16 0zm-6.83 -15.72l2.59 0 11.17 24.68 -2.98 0 -2.87 -6.48 -13.33 0 -2.91 6.48 -2.83 0 11.16 -24.68zm18.59 0.18l2.76 0 0 21.94 13.79 0 0 2.56 -16.55 0 0 -24.5zm-166.37 12.76c-0.01,-0.19 -0.01,-0.37 -0.01,-0.56l0 -0.07c0,-0.2 0,-0.4 0.01,-0.6 -0.11,-1.66 -0.71,-2.97 -1.81,-3.93 -1.23,-1.07 -2.84,-1.61 -4.85,-1.61l-2.73 0 0 12.28 2.73 0c2.01,0 3.62,-0.53 4.85,-1.59 1.09,-0.95 1.7,-2.26 1.81,-3.92zm6.84 -1.23l0 0.46 0 0.07c0,0.21 0,0.42 -0.01,0.62 0.05,0.7 0.19,1.37 0.43,2.02 0.31,0.79 0.73,1.49 1.27,2.08 0.54,0.6 1.19,1.08 1.96,1.43 0.75,0.36 1.6,0.54 2.52,0.54 0.85,0 1.67,-0.15 2.46,-0.45l-3.35 -2.86 3.38 -3.79 3.28 2.96c0.25,-0.71 0.38,-1.49 0.38,-2.34l0 -0.07c0,-0.88 -0.15,-1.71 -0.45,-2.5 -0.3,-0.8 -0.73,-1.5 -1.28,-2.1 -0.55,-0.61 -1.21,-1.1 -1.98,-1.45 -0.77,-0.36 -1.62,-0.54 -2.53,-0.54 -0.92,0 -1.76,0.18 -2.5,0.54 -0.75,0.35 -1.39,0.83 -1.93,1.43 -0.55,0.6 -0.96,1.29 -1.25,2.07 -0.22,0.6 -0.35,1.23 -0.4,1.88z"/>
 </g>
</svg>
