<svg xmlns="http://www.w3.org/2000/svg" width="200" height="40" shape-rendering="geometricPrecision" image-rendering="optimizeQuality" fill-rule="evenodd" xmlns:v="https://vecta.io/nano"><path d="M36.87 30.29c-1.03.67-2.17 1.19-3.41 1.57a13.34 13.34 0 0 1-3.93.57c-1.86 0-3.58-.33-5.17-.98-1.59-.66-2.95-1.55-4.1-2.68l-.36-.36-.1.09c-1.17 1.08-2.61 1.92-4.32 2.53-1.72.61-3.65.92-5.81.92H.5V7.81h9.31c2.16 0 4.08.3 5.77.88 1.69.59 3.12 1.41 4.28 2.47l.14.13.29-.29c1.17-1.14 2.55-2.03 4.14-2.69 1.58-.65 3.31-.98 5.17-.98s3.59.33 5.17.98c1.59.66 2.95 1.55 4.1 2.67 1.15 1.13 2.05 2.45 2.71 3.97.65 1.52.98 3.14.98 4.86v.07c0 1.29-.18 2.52-.55 3.69s-.9 2.25-1.59 3.24l2.49 2.1-3.38 3.76-2.66-2.38zm29.08-.6c1.54 0 2.94-.24 4.2-.73s2.33-1.17 3.21-2.03a8.88 8.88 0 0 0 2.02-3.06c.48-1.18.72-2.45.72-3.8V20c0-1.35-.24-2.62-.72-3.8-.47-1.18-1.15-2.2-2.02-3.08-.88-.87-1.95-1.56-3.21-2.06s-2.66-.75-4.2-.75h-5.74v19.38h5.74zm-8.5-21.94h8.5c1.92 0 3.67.31 5.27.93s2.98 1.47 4.13 2.57 2.05 2.39 2.68 3.87.94 3.08.94 4.81V20c0 1.73-.31 3.34-.94 4.83s-1.53 2.79-2.68 3.88c-1.15 1.1-2.53 1.96-4.13 2.59s-3.35.95-5.27.95h-8.5V7.75zm27.61 0h2.77v24.5h-2.77V7.75zm21.31 24.92c-1.93 0-3.66-.33-5.19-.98s-2.84-1.55-3.92-2.69c-1.09-1.15-1.91-2.48-2.49-4.01-.57-1.53-.85-3.17-.85-4.92V20c0-1.68.29-3.28.89-4.81.59-1.53 1.43-2.88 2.5-4.05 1.07-1.16 2.36-2.09 3.87-2.78 1.5-.69 3.18-1.03 5.02-1.03 1.03 0 1.97.07 2.82.21s1.64.35 2.38.63c.73.28 1.42.62 2.06 1.03s1.27.87 1.87 1.39l-1.78 2.1a12.08 12.08 0 0 0-1.47-1.14c-.51-.34-1.07-.63-1.66-.88-.6-.24-1.25-.43-1.96-.58a12.33 12.33 0 0 0-2.36-.21c-1.36 0-2.61.27-3.75.81s-2.12 1.26-2.94 2.17a10 10 0 0 0-1.92 3.2c-.47 1.23-.7 2.52-.7 3.87V20c0 1.47.22 2.82.68 4.06.45 1.24 1.1 2.31 1.94 3.22s1.85 1.62 3.05 2.13c1.18.52 2.53.77 4.02.77 1.4 0 2.72-.24 3.96-.71 1.23-.48 2.27-1.06 3.11-1.74v-6.08h-7.45v-2.49h10.11v9.76c-1.14 1.03-2.55 1.91-4.22 2.65-1.67.73-3.54 1.1-5.62 1.1zm16.31-24.92h2.77v24.5h-2.77V7.75zm16.42 2.56h-8.23V7.75h19.22v2.56h-8.23v21.94h-2.76V10.31zm32.09 12.98l-5.57-12.49-5.59 12.49h11.16zm-6.83-15.72h2.59l11.17 24.68h-2.98l-2.87-6.48h-13.33l-2.91 6.48h-2.83l11.16-24.68zm18.59.18h2.76v21.94h13.79v2.56h-16.55V7.75zM16.58 20.51l-.01-.56v-.07l.01-.6c-.11-1.66-.71-2.97-1.81-3.93-1.23-1.07-2.84-1.61-4.85-1.61H7.19v12.28h2.73c2.01 0 3.62-.53 4.85-1.59 1.09-.95 1.7-2.26 1.81-3.92zm6.84-1.23v.46.07l-.01.62a7.28 7.28 0 0 0 .43 2.02c.31.79.73 1.49 1.27 2.08.54.6 1.19 1.08 1.96 1.43.75.36 1.6.54 2.52.54a6.87 6.87 0 0 0 2.46-.45l-3.35-2.86 3.38-3.79 3.28 2.96c.25-.71.38-1.49.38-2.34v-.07a6.97 6.97 0 0 0-.45-2.5c-.3-.8-.73-1.5-1.28-2.1a5.97 5.97 0 0 0-1.98-1.45 5.92 5.92 0 0 0-2.53-.54c-.92 0-1.76.18-2.5.54a5.96 5.96 0 0 0-1.93 1.43c-.55.6-.96 1.29-1.25 2.07-.22.6-.35 1.23-.4 1.88z" fill="#d4d4d4" fill-rule="nonzero"/></svg>