<?xml version="1.0" encoding="UTF-8"?>
<!DOCTYPE svg PUBLIC "-//W3C//DTD SVG 1.1//EN" "http://www.w3.org/Graphics/SVG/1.1/DTD/svg11.dtd">
<svg xmlns="http://www.w3.org/2000/svg" xml:space="preserve" width="200px" height="40px" version="1.1" style="shape-rendering:geometricPrecision; text-rendering:geometricPrecision; image-rendering:optimizeQuality; fill-rule:evenodd; clip-rule:evenodd"
viewBox="0 0 200 40"
 xmlns:xlink="http://www.w3.org/1999/xlink">
 <defs>
  <style type="text/css">
   <![CDATA[
    .fil0 {fill:#A6E0B5}
    .fil1 {fill:#7BB88C;fill-rule:nonzero}
   ]]>
  </style>
 </defs>
 <g id="Arte">
  <rect class="fil0" x="19.14" y="3.19" width="161.71" height="33.62" rx="8" ry="8"/>
  <polygon class="fil1" points="63.31,11.68 67.6,11.68 74.41,20.41 74.41,11.68 78.92,11.68 78.92,28.21 74.9,28.21 67.82,19.14 67.82,28.21 63.31,28.21 "/>
  <path id="1" class="fil1" d="M90.2 24.4c0.63,0 1.21,-0.11 1.73,-0.35 0.52,-0.24 0.96,-0.56 1.32,-0.96 0.37,-0.4 0.65,-0.87 0.86,-1.4 0.2,-0.54 0.3,-1.1 0.3,-1.7l0 -0.05c0,-0.6 -0.1,-1.16 -0.3,-1.7 -0.21,-0.54 -0.5,-1.01 -0.88,-1.42 -0.38,-0.41 -0.83,-0.73 -1.35,-0.98 -0.52,-0.24 -1.1,-0.36 -1.73,-0.36 -0.63,0 -1.2,0.12 -1.71,0.35 -0.52,0.24 -0.96,0.56 -1.33,0.96 -0.37,0.4 -0.66,0.87 -0.85,1.4 -0.2,0.54 -0.3,1.11 -0.3,1.7l0 0.05c0,0.6 0.1,1.17 0.31,1.7 0.2,0.54 0.49,1.01 0.86,1.42 0.37,0.41 0.82,0.73 1.34,0.98 0.52,0.24 1.1,0.36 1.73,0.36zm-0.04 4.14c-1.27,0 -2.45,-0.23 -3.54,-0.68 -1.08,-0.45 -2.02,-1.05 -2.81,-1.83 -0.78,-0.77 -1.4,-1.67 -1.85,-2.71 -0.45,-1.04 -0.67,-2.15 -0.67,-3.33l0 -0.05c0,-1.18 0.22,-2.29 0.67,-3.34 0.45,-1.05 1.07,-1.96 1.88,-2.74 0.8,-0.78 1.74,-1.39 2.83,-1.84 1.09,-0.45 2.27,-0.68 3.54,-0.68 1.28,0 2.46,0.23 3.54,0.68 1.09,0.45 2.03,1.06 2.81,1.83 0.79,0.77 1.41,1.67 1.86,2.71 0.45,1.04 0.67,2.15 0.67,3.33l0 0.05c0,1.18 -0.22,2.3 -0.67,3.34 -0.45,1.05 -1.08,1.96 -1.88,2.74 -0.8,0.78 -1.75,1.39 -2.83,1.84 -1.09,0.45 -2.27,0.68 -3.55,0.68z"/>
  <polygon id="2" class="fil1" points="100.15,11.68 105.28,11.68 109.03,22.14 112.79,11.68 117.82,11.68 111.11,28.32 106.86,28.32 "/>
  <path id="3" class="fil1" d="M127.77 24.4c0.63,0 1.21,-0.11 1.73,-0.35 0.52,-0.24 0.96,-0.56 1.32,-0.96 0.37,-0.4 0.65,-0.87 0.86,-1.4 0.2,-0.54 0.31,-1.1 0.31,-1.7l0 -0.05c0,-0.6 -0.11,-1.16 -0.31,-1.7 -0.21,-0.54 -0.5,-1.01 -0.88,-1.42 -0.38,-0.41 -0.82,-0.73 -1.35,-0.98 -0.52,-0.24 -1.1,-0.36 -1.73,-0.36 -0.63,0 -1.2,0.12 -1.71,0.35 -0.52,0.24 -0.96,0.56 -1.33,0.96 -0.37,0.4 -0.66,0.87 -0.85,1.4 -0.2,0.54 -0.3,1.11 -0.3,1.7l0 0.05c0,0.6 0.1,1.17 0.31,1.7 0.2,0.54 0.49,1.01 0.87,1.42 0.37,0.41 0.81,0.73 1.33,0.98 0.52,0.24 1.1,0.36 1.73,0.36zm-0.03 4.14c-1.28,0 -2.46,-0.23 -3.55,-0.68 -1.08,-0.45 -2.02,-1.05 -2.81,-1.83 -0.78,-0.77 -1.4,-1.67 -1.85,-2.71 -0.45,-1.04 -0.67,-2.15 -0.67,-3.33l0 -0.05c0,-1.18 0.22,-2.29 0.67,-3.34 0.45,-1.05 1.07,-1.96 1.88,-2.74 0.8,-0.78 1.74,-1.39 2.83,-1.84 1.09,-0.45 2.27,-0.68 3.54,-0.68 1.28,0 2.46,0.23 3.55,0.68 1.08,0.45 2.02,1.06 2.81,1.83 0.78,0.77 1.4,1.67 1.85,2.71 0.45,1.04 0.67,2.15 0.67,3.33l0 0.05c0,1.18 -0.22,2.3 -0.67,3.34 -0.45,1.05 -1.08,1.96 -1.88,2.74 -0.8,0.78 -1.75,1.39 -2.83,1.84 -1.09,0.45 -2.27,0.68 -3.54,0.68z"/>
 </g>
</svg>
