<?xml version="1.0" encoding="UTF-8"?>
<!DOCTYPE svg PUBLIC "-//W3C//DTD SVG 1.1//EN" "http://www.w3.org/Graphics/SVG/1.1/DTD/svg11.dtd">
<svg xmlns="http://www.w3.org/2000/svg" xml:space="preserve" width="200px" height="40px" version="1.1" style="shape-rendering:geometricPrecision; text-rendering:geometricPrecision; image-rendering:optimizeQuality; fill-rule:evenodd; clip-rule:evenodd"
viewBox="0 0 200 40"
 xmlns:xlink="http://www.w3.org/1999/xlink">
 <defs>
  <style type="text/css">
   <![CDATA[
    .fil0 {fill:#F7AFAF}
    .fil1 {fill:#C25757;fill-rule:nonzero}
   ]]>
  </style>
 </defs>
 <g id="Arte">
  <rect class="fil0" x="19.14" y="3.19" width="161.71" height="33.62" rx="8" ry="8"/>
  <polygon class="fil1" points="38.13,11.68 51.4,11.68 51.4,15.57 42.64,15.57 42.64,18.08 50.57,18.08 50.57,21.69 42.64,21.69 42.64,24.31 51.52,24.31 51.52,28.21 38.13,28.21 "/>
  <polygon id="1" class="fil1" points="53.88,11.68 58.72,11.68 62.66,18.08 66.61,11.68 71.45,11.68 71.45,28.21 66.89,28.21 66.89,18.71 62.68,25.18 62.58,25.18 58.39,18.76 58.39,28.21 53.88,28.21 "/>
  <path id="2" class="fil1" d="M88.92 24.52c0.71,0 1.26,-0.13 1.63,-0.39 0.38,-0.26 0.57,-0.63 0.57,-1.12l0 -0.05c0,-0.45 -0.18,-0.82 -0.54,-1.08 -0.36,-0.27 -0.93,-0.4 -1.7,-0.4l-3.5 0 0 3.04 3.54 0zm-0.66 -6.26c0.71,0 1.25,-0.11 1.62,-0.35 0.37,-0.24 0.56,-0.6 0.56,-1.09l0 -0.04c0,-0.46 -0.18,-0.81 -0.52,-1.05 -0.35,-0.25 -0.87,-0.37 -1.56,-0.37l-2.98 0 0 2.9 2.88 0zm-7.34 -6.58l8.46 0c1.04,0 1.93,0.12 2.67,0.37 0.74,0.25 1.35,0.63 1.83,1.11 0.33,0.33 0.59,0.72 0.78,1.16 0.19,0.44 0.29,0.94 0.29,1.51l0 0.05c0,0.96 -0.24,1.74 -0.72,2.33 -0.48,0.59 -1.09,1.04 -1.82,1.35 1.01,0.33 1.81,0.81 2.4,1.43 0.6,0.62 0.89,1.49 0.89,2.61l0 0.05c0,1.43 -0.54,2.55 -1.64,3.35 -1.09,0.8 -2.63,1.21 -4.62,1.21l-8.52 0 0 -16.53z"/>
  <path id="3" class="fil1" d="M105.41 19.61c0.78,0 1.39,-0.18 1.82,-0.53 0.42,-0.36 0.63,-0.83 0.63,-1.43l0 -0.05c0,-0.66 -0.22,-1.15 -0.66,-1.47 -0.44,-0.33 -1.04,-0.49 -1.82,-0.49l-3 0 0 3.97 3.03 0zm-7.61 -7.93l7.82 0c1.28,0 2.35,0.15 3.24,0.47 0.88,0.31 1.59,0.75 2.14,1.32 0.98,0.95 1.47,2.23 1.47,3.85l0 0.05c0,1.27 -0.31,2.33 -0.92,3.16 -0.62,0.84 -1.44,1.47 -2.48,1.91l3.94 5.77 -5.29 0 -3.33 -5.01 -0.04 0 -1.97 0 0 5.01 -4.58 0 0 -16.53z"/>
  <polygon id="4" class="fil1" points="114.78,11.68 128.05,11.68 128.05,15.57 119.29,15.57 119.29,18.08 127.23,18.08 127.23,21.69 119.29,21.69 119.29,24.31 128.17,24.31 128.17,28.21 114.78,28.21 "/>
  <polygon id="5" class="fil1" points="129.21,11.68 134.34,11.68 138.09,22.14 141.85,11.68 146.88,11.68 140.17,28.32 135.92,28.32 "/>
  <polygon id="6" class="fil1" points="148.48,11.68 161.75,11.68 161.75,15.57 152.99,15.57 152.99,18.08 160.93,18.08 160.93,21.69 152.99,21.69 152.99,24.31 161.87,24.31 161.87,28.21 148.48,28.21 "/>
 </g>
</svg>
