<?xml version="1.0" encoding="UTF-8"?>
<!DOCTYPE svg PUBLIC "-//W3C//DTD SVG 1.1//EN" "http://www.w3.org/Graphics/SVG/1.1/DTD/svg11.dtd">
<svg xmlns="http://www.w3.org/2000/svg" xml:space="preserve" width="200px" height="40px" version="1.1" style="shape-rendering:geometricPrecision; text-rendering:geometricPrecision; image-rendering:optimizeQuality; fill-rule:evenodd; clip-rule:evenodd"
viewBox="0 0 200 40"
 xmlns:xlink="http://www.w3.org/1999/xlink">
 <defs>
  <style type="text/css">
   <![CDATA[
    .fil0 {fill:#F7AFAF}
    .fil1 {fill:#C25757;fill-rule:nonzero}
   ]]>
  </style>
 </defs>
 <g id="Arte">
  <rect class="fil0" x="19.14" y="3.19" width="161.71" height="33.62" rx="8" ry="8"/>
  <path class="fil1" d="M37.17 11.55l13.47 0 0 3.95 -8.89 0 0 2.55 8.06 0 0 3.66 -8.06 0 0 2.67 9.01 0 0 3.95 -13.59 0 0 -16.78zm15.99 0l4.92 0 4 6.5 4.01 -6.5 4.92 0 0 16.78 -4.63 0 0 -9.64 -4.28 6.57 -0.1 0 -4.26 -6.52 0 9.59 -4.58 0 0 -16.78zm35.59 13.04c0.72,0 1.27,-0.13 1.66,-0.39 0.38,-0.27 0.57,-0.65 0.57,-1.14l0 -0.05c0,-0.46 -0.18,-0.83 -0.55,-1.1 -0.37,-0.28 -0.94,-0.41 -1.73,-0.41l-3.55 0 0 3.09 3.6 0zm-0.67 -6.35c0.72,0 1.27,-0.12 1.64,-0.36 0.38,-0.24 0.57,-0.61 0.57,-1.11l0 -0.04c0,-0.47 -0.18,-0.82 -0.53,-1.07 -0.35,-0.25 -0.88,-0.37 -1.58,-0.37l-3.03 0 0 2.95 2.93 0zm-7.46 -6.69l8.59 0c1.06,0 1.96,0.12 2.71,0.38 0.75,0.26 1.38,0.63 1.87,1.13 0.33,0.33 0.6,0.72 0.79,1.17 0.19,0.45 0.29,0.96 0.29,1.54l0 0.05c0,0.97 -0.25,1.76 -0.73,2.36 -0.48,0.6 -1.1,1.06 -1.85,1.38 1.03,0.33 1.84,0.82 2.44,1.45 0.6,0.63 0.9,1.51 0.9,2.65l0 0.04c0,1.46 -0.55,2.6 -1.66,3.41 -1.11,0.82 -2.68,1.22 -4.69,1.22l-8.66 0 0 -16.78zm24.87 8.05c0.8,0 1.42,-0.18 1.85,-0.54 0.43,-0.36 0.64,-0.84 0.64,-1.45l0 -0.04c0,-0.68 -0.22,-1.18 -0.67,-1.5 -0.44,-0.33 -1.06,-0.49 -1.84,-0.49l-3.05 0 0 4.02 3.07 0zm-7.72 -8.05l7.94 0c1.29,0 2.39,0.15 3.28,0.47 0.9,0.32 1.62,0.77 2.18,1.35 1,0.96 1.49,2.26 1.49,3.91l0 0.05c0,1.29 -0.31,2.36 -0.93,3.21 -0.63,0.85 -1.47,1.49 -2.52,1.94l4 5.85 -5.37 0 -3.38 -5.08 -0.05 0 -1.99 0 0 5.08 -4.65 0 0 -16.78zm17.24 0l13.48 0 0 3.95 -8.9 0 0 2.55 8.06 0 0 3.66 -8.06 0 0 2.67 9.02 0 0 3.95 -13.6 0 0 -16.78zm14.65 0l5.21 0 3.81 10.62 3.82 -10.62 5.1 0 -6.81 16.9 -4.31 0 -6.82 -16.9zm19.58 0l13.47 0 0 3.95 -8.9 0 0 2.55 8.06 0 0 3.66 -8.06 0 0 2.67 9.02 0 0 3.95 -13.59 0 0 -16.78z"/>
 </g>
</svg>
